<?xml version="1.0" standalone="no"?>
<!DOCTYPE svg PUBLIC "-//W3C//DTD SVG 1.1//EN" "http://www.w3.org/Graphics/SVG/1.1/DTD/svg11.dtd" >
<svg xmlns="http://www.w3.org/2000/svg" xmlns:xlink="http://www.w3.org/1999/xlink" version="1.1">
<metadata>
Created by FontForge 20170731 at Tue May 20 16:12:26 2014
 By Aleksey,,,
Copyright (c) 2013 by Mattia Bonanomi. All rights reserved.
</metadata>
<defs>
<font id="MTTMilano-Black" horiz-adv-x="762" >
  <font-face 
    font-family="MTT Milano Black"
    font-weight="900"
    font-stretch="normal"
    units-per-em="1000"
    panose-1="0 0 10 0 0 0 0 0 0 0"
    ascent="760"
    descent="-240"
    x-height="440"
    cap-height="695"
    bbox="-66 -335 1111 919"
    underline-thickness="50"
    underline-position="-200"
    unicode-range="U+000D-FB02"
  />
<missing-glyph horiz-adv-x="815" 
d="M408 707q160 0 264.5 -104.5t104.5 -254.5t-105 -255t-264 -105q-160 0 -265 105t-105 255q0 149 105 254t265 105zM542 490l43 77q-105 57 -186 57q-68 0 -114 -39t-46 -102q0 -111 124 -157l83 -30q62 -23 62 -69q0 -28 -22.5 -48t-62.5 -20q-71 0 -174 62l-42 -77
q54 -33 112 -53t100 -20q77 0 129 42.5t52 113.5q0 104 -118 149l-104 41q-47 18 -47 59q0 22 18 41t60 19q49 0 133 -46z" />
    <glyph glyph-name="fi" unicode="fi" horiz-adv-x="632" 
d="M566 440v-440h-136v335h-189v-335h-136v335h-98l55 105h43v2q0 129 68.5 204.5t188.5 75.5v-110q-54 -1 -87 -47t-34 -125h325zM498 555q-35 0 -57 23.5t-22 54.5q0 30 22 52t57 22t57.5 -22t22.5 -52q0 -31 -22.5 -54.5t-57.5 -23.5z" />
    <glyph glyph-name="fl" unicode="fl" horiz-adv-x="668" 
d="M105 440v2q0 129 68.5 204.5t188.5 75.5v-110q-54 -1 -87 -47t-34 -125h121v-105h-121v-335h-136v335h-98l55 105h43zM595 710v-710h-136v710h136z" />
    <glyph glyph-name="f_f" unicode="ff" horiz-adv-x="690" 
d="M687 722v-110q-54 -1 -87 -47t-34 -125h121v-105h-121v-335h-136v335h-189v-335h-136v335h-98l55 105h43v2q0 129 68.5 204.5t188.5 75.5v-110q-54 -1 -87 -47t-34 -125h189v2q0 129 68.5 204.5t188.5 75.5z" />
    <glyph glyph-name="f_f_i" unicode="ffi" horiz-adv-x="957" 
d="M891 440v-440h-136v335h-189v-335h-136v335h-189v-335h-136v335h-98l55 105h43v2q0 129 68.5 204.5t188.5 75.5v-110q-54 -1 -87 -47t-34 -125h189v2q0 129 68.5 204.5t188.5 75.5v-110q-54 -1 -87 -47t-34 -125h325zM823 555q-35 0 -57 23.5t-22 54.5q0 30 22 52t57 22
t57.5 -22t22.5 -52q0 -31 -22.5 -54.5t-57.5 -23.5z" />
    <glyph glyph-name=".notdef" horiz-adv-x="815" 
d="M408 707q160 0 264.5 -104.5t104.5 -254.5t-105 -255t-264 -105q-160 0 -265 105t-105 255q0 149 105 254t265 105zM542 490l43 77q-105 57 -186 57q-68 0 -114 -39t-46 -102q0 -111 124 -157l83 -30q62 -23 62 -69q0 -28 -22.5 -48t-62.5 -20q-71 0 -174 62l-42 -77
q54 -33 112 -53t100 -20q77 0 129 42.5t52 113.5q0 104 -118 149l-104 41q-47 18 -47 59q0 22 18 41t60 19q49 0 133 -46z" />
    <glyph glyph-name=".null" horiz-adv-x="0" 
 />
    <glyph glyph-name="nonmarkingreturn" horiz-adv-x="333" 
 />
    <glyph glyph-name="CR" unicode="&#xd;" horiz-adv-x="245" 
 />
    <glyph glyph-name="space" unicode=" " horiz-adv-x="245" 
 />
    <glyph glyph-name="exclam" unicode="!" horiz-adv-x="381" 
d="M259 232h-137l-8 463h153zM190 140q35 0 56.5 -22.5t21.5 -52.5t-21.5 -53.5t-56.5 -23.5q-32 0 -54.5 24t-22.5 53t22.5 52t54.5 23z" />
    <glyph glyph-name="quotedbl" unicode="&#x22;" horiz-adv-x="448" 
d="M100 434l-38 176q-8 41 10.5 69t58.5 28t59 -28t11 -69l-35 -176h-66zM286 434l-39 176q-9 40 10.5 68.5t59.5 28.5q39 0 58 -28t11 -69l-34 -176h-66z" />
    <glyph glyph-name="numbersign" unicode="#" horiz-adv-x="751" 
d="M587 434l-29 -162h119v-101h-137l-30 -171h-130l30 171h-126l-29 -171h-130l29 171h-110v101h128l27 162h-119v100h136l28 161h130l-28 -161h129l28 161h130l-28 -161h102v-100h-120zM457 434h-128l-27 -162h126z" />
    <glyph glyph-name="dollar" unicode="$" horiz-adv-x="637" 
d="M283 440l146 -57q69 -27 104 -78t35 -112q0 -78 -51 -132.5t-124 -68.5v-73h-144v86q-83 23 -180 80l63 112q149 -87 222 -87q27 0 48.5 24.5t21.5 56.5q0 33 -18 52.5t-55 34.5l-121 46q-68 25 -106 73.5t-38 114.5q0 72 47.5 124.5t115.5 66.5v73h144v-81
q57 -14 154 -67l-65 -111q-111 68 -174 68q-40 0 -59 -22t-19 -49q0 -53 53 -74z" />
    <glyph glyph-name="percent" unicode="%" horiz-adv-x="771" 
d="M192 707q67 0 114 -45.5t47 -108.5q0 -62 -47.5 -107t-113.5 -45q-65 0 -112.5 45t-47.5 107q0 63 47 108.5t113 45.5zM242 0h-139l426 695h139zM192 621q-24 0 -43 -19t-19 -49q0 -28 19 -47t43 -19q23 0 43 19t20 47q0 29 -20 48.5t-43 19.5zM579 294q67 0 114 -46
t47 -108q0 -60 -47.5 -106t-113.5 -46t-113.5 45.5t-47.5 106.5q0 62 47 108t114 46zM579 208q-24 0 -43 -20t-19 -48q0 -29 18.5 -47.5t43.5 -18.5q24 0 43 18.5t19 47.5q0 28 -19.5 48t-42.5 20z" />
    <glyph glyph-name="ampersand" unicode="&#x26;" horiz-adv-x="669" 
d="M661 0h-137l-32 56q-139 -68 -229 -68t-149.5 46.5t-59.5 128.5q0 56 40 100.5t109 71.5l16 6q-50 21 -81.5 64.5t-31.5 102.5q0 85 67.5 141.5t160.5 56.5q57 0 101 -30.5t64 -74.5l-111 -40q-18 41 -54 41q-39 0 -65.5 -24.5t-26.5 -69.5q0 -62 46 -88t109 -7l142 55
l48 -85l-111 -45zM363 293l-70 -28q-60 -24 -81.5 -45.5t-21.5 -55.5q0 -36 20.5 -54t54.5 -18q28 0 59.5 10t112.5 46z" />
    <glyph glyph-name="quotesingle" unicode="'" horiz-adv-x="264" 
d="M105 434l-43 171q-10 41 9.5 71.5t59.5 30.5t59.5 -30.5t10.5 -71.5l-40 -171h-56z" />
    <glyph glyph-name="parenleft" unicode="(" horiz-adv-x="454" 
d="M313 768l109 -54q-195 -214 -195 -433q0 -223 195 -434l-109 -53q-104 104 -162 237t-58 250q0 118 57.5 250t162.5 237z" />
    <glyph glyph-name="parenright" unicode=")" horiz-adv-x="454" 
d="M32 714l108 54q105 -105 163 -237t58 -250q0 -117 -58 -250t-162 -237l-109 53q195 211 195 434q0 219 -195 433z" />
    <glyph glyph-name="asterisk" unicode="*" horiz-adv-x="530" 
d="M316 590l109 33l27 -89l-115 -27l75 -92l-86 -62l-60 91l-61 -91l-86 62l75 92l-115 27l27 89l109 -33l-10 105h121z" />
    <glyph glyph-name="plus" unicode="+" horiz-adv-x="570" 
d="M353 318h151v-114h-151v-151h-136v151h-151v114h151v151h136v-151z" />
    <glyph glyph-name="comma" unicode="," horiz-adv-x="276" 
d="M58 -132v196q0 28 25 52.5t57 24.5q34 0 53.5 -23t19.5 -54q0 -16 -11 -35l-100 -161h-44z" />
    <glyph glyph-name="hyphen" unicode="-" horiz-adv-x="438" 
d="M372 204h-306v114h306v-114z" />
    <glyph glyph-name="period" unicode="." horiz-adv-x="265" 
d="M132 140q35 0 56.5 -23t21.5 -53t-21.5 -53t-56.5 -23q-32 0 -54.5 23.5t-22.5 52.5t22.5 52.5t54.5 23.5z" />
    <glyph glyph-name="slash" unicode="/" horiz-adv-x="598" 
d="M186 0h-148l373 695h149z" />
    <glyph glyph-name="zero" unicode="0" horiz-adv-x="716" 
d="M358 707q136 0 228 -105t92 -254q0 -93 -38 -174.5t-112.5 -133.5t-169.5 -52q-141 0 -230.5 105.5t-89.5 254.5q0 97 37 178t111 131t172 50zM358 585q-76 0 -124 -68.5t-48 -168.5t46.5 -169t125.5 -69q73 0 122.5 70t49.5 168q0 92 -49 164.5t-123 72.5z" />
    <glyph glyph-name="one" unicode="1" horiz-adv-x="369" 
d="M277 0h-143v512h-80v64l223 139v-715z" />
    <glyph glyph-name="two" unicode="2" horiz-adv-x="605" 
d="M208 484h-144q-2 91 66 157t167 66t170 -64.5t71 -156.5q0 -32 -21 -70.5t-68 -101.5l-149 -196h238v-118h-489l306 403q35 46 35 83q0 43 -25.5 71t-64.5 28t-66.5 -29t-25.5 -72z" />
    <glyph glyph-name="three" unicode="3" horiz-adv-x="602" 
d="M534 695l-198 -255q83 0 144 -65t61 -153q0 -98 -71 -166t-175 -68q-83 0 -149.5 46.5t-88.5 116.5h170q20 -40 70 -40q41 0 68 34t27 77q0 47 -26.5 79t-64.5 32q-51 0 -75 -42h-153l220 286h-232v118h473z" />
    <glyph glyph-name="four" unicode="4" horiz-adv-x="644" 
d="M511 246h85v-118h-85v-128h-144v128h-364l508 587v-469zM251 246h129v158z" />
    <glyph glyph-name="five" unicode="5" horiz-adv-x="575" 
d="M488 577h-246l-29 -143q45 18 95 18q92 0 151 -63.5t59 -160.5q0 -100 -71 -170t-173 -70q-87 0 -153 54t-80 118h157q28 -47 83 -47q37 0 66.5 31.5t29.5 83.5q0 47 -25.5 74.5t-64.5 27.5q-27 0 -53.5 -13t-42.5 -33l-137 31l67 380h338z" />
    <glyph glyph-name="six" unicode="6" horiz-adv-x="583" 
d="M392 695l-130 -247q26 4 45 4q89 0 156.5 -69.5t67.5 -162.5q0 -94 -71.5 -163t-172.5 -69q-75 1 -131.5 35t-84 86t-27.5 111q0 73 41 152l164 323h143zM287 326q-39 0 -67 -30.5t-28 -75.5q0 -46 28 -78t67 -32t67.5 32t28.5 78q0 45 -28 75.5t-68 30.5z" />
    <glyph glyph-name="seven" unicode="7" horiz-adv-x="556" 
d="M255 0h-160l260 577h-330v118h536z" />
    <glyph glyph-name="eight" unicode="8" horiz-adv-x="593" 
d="M296 707q85 0 146 -59t62 -137q-2 -69 -57 -124q88 -68 88 -169q0 -94 -69.5 -162t-169.5 -68q-98 0 -168 68t-70 162q0 46 23.5 90.5t64.5 77.5q-55 60 -55 125q0 78 61 137t144 59zM296 585q-25 0 -43.5 -21t-18.5 -53t18.5 -53.5t43.5 -21.5q26 0 45 21.5t19 53.5
t-19 53t-45 21zM296 322q-39 0 -67 -29.5t-28 -74.5q0 -46 28 -77t67 -31q40 0 69 31t29 77t-28.5 75t-69.5 29z" />
    <glyph glyph-name="nine" unicode="9" horiz-adv-x="575" 
d="M172 0l136 232q-24 -4 -41 -4q-88 0 -155.5 70.5t-67.5 163.5q0 95 71.5 164t171.5 69q75 -1 132 -35.5t84.5 -86.5t27.5 -111q0 -76 -41 -151l-169 -311h-149zM287 573q-39 0 -67.5 -32.5t-28.5 -78.5q0 -45 28.5 -76.5t67.5 -31.5t67.5 31.5t28.5 76.5q0 46 -28.5 78.5
t-67.5 32.5z" />
    <glyph glyph-name="colon" unicode=":" horiz-adv-x="306" 
d="M153 455q35 0 56.5 -23t21.5 -52q0 -30 -21.5 -53t-56.5 -23q-32 0 -55 23.5t-23 52.5q0 28 23 51.5t55 23.5zM153 140q35 0 56.5 -23t21.5 -53t-21.5 -53t-56.5 -23q-32 0 -55 23.5t-23 52.5t23 52.5t55 23.5z" />
    <glyph glyph-name="semicolon" unicode=";" horiz-adv-x="272" 
d="M136 455q35 0 56.5 -23t21.5 -52q0 -30 -21.5 -53t-56.5 -23q-32 0 -55 23.5t-23 52.5q0 28 23 51.5t55 23.5zM58 -132v196q0 29 23 53t55 24q35 0 56.5 -23.5t21.5 -53.5q0 -16 -11 -35l-91 -161h-54z" />
    <glyph glyph-name="less" unicode="&#x3c;" horiz-adv-x="591" 
d="M525 374l-222 -113l222 -113v-122l-459 235l459 236v-123z" />
    <glyph glyph-name="equal" unicode="=" horiz-adv-x="602" 
d="M536 303h-470v114h470v-114zM536 105h-470v115h470v-115z" />
    <glyph glyph-name="greater" unicode="&#x3e;" horiz-adv-x="589" 
d="M523 261l-457 -235v122l222 113l-222 113v123z" />
    <glyph glyph-name="question" unicode="?" horiz-adv-x="509" 
d="M42 484v30q1 78 59.5 135.5t144.5 57.5t143.5 -55.5t57.5 -126.5q0 -66 -50 -126l-81 -95l-5 -97h-135l-5 115l105 122q29 33 29 69q0 32 -16.5 53.5t-42.5 21.5q-27 0 -43.5 -22.5t-16.5 -52.5v-29h-144zM244 140q35 0 56.5 -22.5t21.5 -52.5t-21.5 -53.5t-56.5 -23.5
q-32 0 -54.5 24t-22.5 53t22.5 52t54.5 23z" />
    <glyph glyph-name="at" unicode="@" horiz-adv-x="957" 
d="M494 -94v-115q-204 -5 -331 112.5t-127 336.5q0 205 125.5 336t317.5 131q195 0 319 -128t124 -339q0 -126 -61.5 -192t-155.5 -66q-40 0 -73 17t-48 40q-16 -21 -52.5 -35.5t-86.5 -14.5q-69 0 -117 43t-48 103t47 95t121 39q49 3 79 8v26q0 22 -16 36t-33 14
q-28 0 -50.5 -9t-52.5 -37l-75 77q48 42 87.5 57t90.5 15q71 0 128 -43.5t57 -109.5v-133q0 -36 12 -58.5t26 -22.5q12 0 21 1.5t23 10t23 23t16 44.5t7 72q0 87 -26.5 156t-71 111t-99.5 63.5t-115 21.5t-115 -21.5t-99.5 -63.5t-71 -111t-26.5 -156q0 -94 27.5 -162
t75.5 -105t103.5 -53t120.5 -14zM527 162v22q-10 -1 -32 -2.5t-32 -2.5q-50 -3 -50 -44q0 -42 44 -42q32 0 51 20t19 49z" />
    <glyph glyph-name="A" unicode="A" horiz-adv-x="707" 
d="M479 151h-250l-66 -151h-152l344 715l341 -715h-152zM430 265l-75 175l-76 -175h151z" />
    <glyph glyph-name="B" unicode="B" horiz-adv-x="670" 
d="M76 695h277q93 0 150 -55.5t57 -134.5q0 -33 -17 -65t-40 -51q47 -22 83.5 -69.5t36.5 -99.5q0 -91 -66.5 -155.5t-172.5 -64.5h-308v695zM220 577v-144h133q28 0 46.5 21t18.5 51t-17.5 51t-47.5 21h-133zM220 320v-202h164q41 0 69 29.5t28 72.5q0 40 -29 70t-68 30
h-164z" />
    <glyph glyph-name="C" unicode="C" horiz-adv-x="732" 
d="M571 204l115 -89q-120 -127 -284 -127q-145 0 -257 106.5t-112 253.5q0 92 48 174.5t134 133.5t187 51q88 0 158 -35t111 -90l-108 -86q-77 89 -161 89q-83 0 -152 -70.5t-69 -166.5q0 -100 64 -169t157 -69q46 0 91 26.5t78 67.5z" />
    <glyph glyph-name="D" unicode="D" horiz-adv-x="744" 
d="M76 695h270q147 0 252 -102t105 -245q0 -142 -101.5 -245t-254.5 -103h-271v695zM220 577v-459h126q86 0 147.5 66.5t61.5 163.5q0 99 -60.5 164t-148.5 65h-126z" />
    <glyph glyph-name="E" unicode="E" horiz-adv-x="627" 
d="M549 577h-329v-164h271v-118h-271v-177h334v-118h-478v695h473v-118z" />
    <glyph glyph-name="F" unicode="F" horiz-adv-x="574" 
d="M540 577h-320v-163h252v-118h-252v-296h-144v695h464v-118z" />
    <glyph glyph-name="G" unicode="G" horiz-adv-x="753" 
d="M700 407v-270q-56 -71 -134 -110t-165 -39q-145 0 -257 106.5t-112 253.5q0 92 48 174.5t134 133.5t187 51q88 0 161.5 -35t113.5 -90l-109 -88q-79 91 -166 91q-83 0 -152 -70.5t-69 -166.5q0 -100 64 -169t157 -69q91 0 157 71v108h-172v118h314z" />
    <glyph glyph-name="H" unicode="H" horiz-adv-x="767" 
d="M687 0h-144v289h-319v-289h-144v695h144v-288h319v288h144v-695z" />
    <glyph glyph-name="I" unicode="I" horiz-adv-x="303" 
d="M226 0h-148v695h148v-695z" />
    <glyph glyph-name="J" unicode="J" horiz-adv-x="344" 
d="M266 695v-614q0 -133 -98 -228.5t-234 -88.5v122q78 -7 131.5 50t53.5 145v614h147z" />
    <glyph glyph-name="K" unicode="K" horiz-adv-x="692" 
d="M291 306l-71 -77v-229h-144v695h144v-291l258 291h170l-264 -288l288 -407h-165z" />
    <glyph glyph-name="L" unicode="L" horiz-adv-x="560" 
d="M220 118h320v-118h-464v695h144v-577z" />
    <glyph glyph-name="M" unicode="M" horiz-adv-x="882" 
d="M801 0h-144v389l-216 -222l-216 222v-389h-144v715l360 -375l360 375v-715z" />
    <glyph glyph-name="N" unicode="N" horiz-adv-x="775" 
d="M550 286v409h144v-715l-469 429v-409h-144v715z" />
    <glyph glyph-name="O" unicode="O" horiz-adv-x="804" 
d="M402 707q153 0 258.5 -103t105.5 -256q0 -149 -102.5 -254.5t-261.5 -105.5q-157 0 -260.5 103.5t-103.5 256.5q0 154 100.5 256.5t263.5 102.5zM402 585q-89 0 -152.5 -67t-63.5 -170t62.5 -170.5t153.5 -67.5q86 0 151 68.5t65 169.5q0 95 -65 166t-151 71z" />
    <glyph glyph-name="P" unicode="P" horiz-adv-x="604" 
d="M76 695h267q99 0 169.5 -58.5t70.5 -146.5t-68 -146.5t-172 -58.5h-123v-285h-144v695zM220 577v-174h116q44 0 71.5 22.5t27.5 64.5q0 87 -99 87h-116z" />
    <glyph glyph-name="Q" unicode="Q" horiz-adv-x="810" 
d="M776 -193l-213 213q-67 -32 -156 -32q-150 0 -259.5 107.5t-109.5 252.5q0 146 106.5 252.5t262.5 106.5q146 0 257.5 -107t111.5 -252q0 -140 -99 -249l99 -99v-193zM407 585q-88 0 -154.5 -70t-66.5 -167q0 -96 65.5 -167t155.5 -71t155.5 70.5t65.5 167.5
q0 89 -68 163t-153 74z" />
    <glyph glyph-name="R" unicode="R" horiz-adv-x="677" 
d="M76 695h284q107 0 176.5 -56.5t69.5 -148.5q0 -65 -38.5 -116.5t-95.5 -76.5l155 -297h-159l-147 285h-103v-285h-142v695zM218 577v-174h145q101 0 101 87q0 42 -26.5 64.5t-77.5 22.5h-142z" />
    <glyph glyph-name="S" unicode="S" horiz-adv-x="630" 
d="M356 276l-106 40q-170 62 -170 206q0 80 64.5 132.5t156.5 52.5q112 0 252 -78l-61 -111q-68 38 -106.5 52.5t-71.5 14.5q-46 0 -66 -22.5t-20 -50.5q0 -50 51 -71l134 -52q160 -62 160 -196q0 -91 -71.5 -148t-174.5 -57q-58 0 -137.5 28t-149.5 71l62 112
q141 -89 230 -89q45 0 69 23.5t24 59.5q0 58 -69 83z" />
    <glyph glyph-name="T" unicode="T" horiz-adv-x="558" 
d="M548 577h-198v-577h-144v577h-197v118h539v-118z" />
    <glyph glyph-name="U" unicode="U" 
d="M689 695v-412q0 -134 -86.5 -214.5t-221.5 -80.5q-134 0 -220.5 80.5t-86.5 214.5v412h144v-412q0 -82 50 -127.5t113 -45.5t113 45.5t50 127.5v412h145z" />
    <glyph glyph-name="V" unicode="V" horiz-adv-x="706" 
d="M353 -20l-343 715h157l186 -420l186 420h157z" />
    <glyph glyph-name="W" unicode="W" horiz-adv-x="1069" 
d="M719 -20l-184 341l-184 -341l-341 715h154l201 -447l103 195l-136 252h134l68 -128l68 128h134l-136 -252l104 -195l201 447h154z" />
    <glyph glyph-name="X" unicode="X" horiz-adv-x="730" 
d="M443 375l274 -375h-166l-186 268l-185 -268h-167l272 375l-232 320h156l156 -213l156 213h157z" />
    <glyph glyph-name="Y" unicode="Y" horiz-adv-x="646" 
d="M395 312v-312h-144v312l-243 383h156l159 -263l159 263h157z" />
    <glyph glyph-name="Z" unicode="Z" horiz-adv-x="613" 
d="M245 118h341v-118h-561l344 577h-329v118h548z" />
    <glyph glyph-name="bracketleft" unicode="[" horiz-adv-x="371" 
d="M350 648h-110v-715h110v-114h-246v943h246v-114z" />
    <glyph glyph-name="backslash" unicode="\" horiz-adv-x="578" 
d="M560 0h-146l-396 695h143z" />
    <glyph glyph-name="bracketright" unicode="]" horiz-adv-x="371" 
d="M267 -181h-246v114h110v715h-110v114h246v-943z" />
    <glyph glyph-name="asciicircum" unicode="^" horiz-adv-x="527" 
d="M461 358h-131l-65 139l-66 -139h-133l199 379z" />
    <glyph glyph-name="underscore" unicode="_" horiz-adv-x="511" 
d="M511 -191h-511v116h511v-116z" />
    <glyph glyph-name="grave" unicode="`" horiz-adv-x="382" 
d="M282 535l-134 48q-70 25 -70 73q0 28 20.5 47t51.5 19q39 0 83 -56l72 -90z" />
    <glyph glyph-name="a" unicode="a" horiz-adv-x="540" 
d="M154 315l-66 71q67 66 178 66q78 0 139 -43.5t61 -114.5v-181q0 -63 10 -113h-122q-7 28 -7 60q-17 -36 -52 -54t-72 -18q-75 0 -123.5 42.5t-48.5 103.5q0 119 165 136q71 8 114 18v4q0 29 -18 45t-46 16q-66 0 -112 -38zM330 171v27q-23 -4 -94 -14q-52 -7 -52 -50
q0 -18 14 -30t43 -12q39 0 64 19.5t25 59.5z" />
    <glyph glyph-name="b" unicode="b" horiz-adv-x="573" 
d="M208 710v-325q19 30 53 48.5t73 18.5q93 0 148 -70.5t55 -161.5t-55 -161.5t-148 -70.5q-36 0 -71.5 18.5t-54.5 48.5v-55h-136v710h136zM304 342q-36 0 -66 -36t-30 -86q0 -49 31 -85t65 -36q44 0 71.5 35t27.5 86t-28 86.5t-71 35.5z" />
    <glyph glyph-name="c" unicode="c" horiz-adv-x="487" 
d="M383 159l76 -78q-86 -93 -191 -93q-97 0 -168 62.5t-71 168.5q0 75 37.5 130t89.5 79t107 24q100 0 183 -80l-67 -83q-55 53 -112 53q-45 0 -74.5 -35.5t-29.5 -87.5q0 -50 31 -85t78 -35q63 0 111 60z" />
    <glyph glyph-name="d" unicode="d" horiz-adv-x="573" 
d="M501 0h-136v55q-19 -30 -54.5 -48.5t-71.5 -18.5q-93 0 -148 70.5t-55 161.5t55 161.5t148 70.5q39 0 73 -18.5t53 -48.5v325h136v-710zM269 342q-43 0 -71 -35.5t-28 -86.5t27.5 -86t71.5 -35q34 0 65 36t31 85q0 50 -30 86t-66 36z" />
    <glyph glyph-name="e" unicode="e" horiz-adv-x="521" 
d="M383 141l100 -48q-30 -50 -82.5 -77.5t-116.5 -27.5q-99 0 -174.5 63.5t-75.5 169.5q0 105 69.5 168t157.5 63q101 0 164 -65.5t63 -163.5q0 -24 -4 -37h-316q6 -42 40 -70t83 -28q28 0 54 15t38 38zM166 272h192q-5 34 -31.5 57t-65.5 23q-32 0 -61 -23.5t-34 -56.5z
" />
    <glyph glyph-name="f" unicode="f" horiz-adv-x="365" 
d="M362 722v-110q-54 -1 -87 -47t-34 -125h121v-105h-121v-335h-136v335h-98l55 105h43v2q0 129 68.5 204.5t188.5 75.5z" />
    <glyph glyph-name="g" unicode="g" horiz-adv-x="577" 
d="M379 439l44 45q50 -28 93 -75l-43 -42q36 -39 36 -93q0 -72 -57.5 -119.5t-159.5 -47.5q-50 0 -98 14l-3 -3q-26 -27 6 -44q27 -14 95 -14q109 0 157 -14q91 -25 91 -133q0 -71 -65 -118t-183 -47q-122 0 -187.5 48t-65.5 117q0 46 51 103q-30 27 -27.5 69.5t33.5 73.5
l16 16q-37 38 -37 99q0 72 65.5 125t151.5 53q57 0 87 -13zM292 347q-31 0 -57 -19.5t-26 -53.5q0 -35 24.5 -53.5t58.5 -18.5t58.5 18.5t24.5 53.5q0 34 -26 53.5t-57 19.5zM185 -30q-28 -22 -28 -52q0 -26 35.5 -41t99.5 -15q62 0 93.5 15t31.5 41q0 28 -25 36
q-34 10 -100 10q-78 0 -107 6z" />
    <glyph glyph-name="h" unicode="h" horiz-adv-x="573" 
d="M212 710v-315q18 27 48.5 42t64.5 15q172 0 172 -206v-246h-136v246q0 99 -68 99q-31 0 -56 -23.5t-25 -75.5v-246h-136v710h136z" />
    <glyph glyph-name="i" unicode="i" horiz-adv-x="267" 
d="M133 707q35 0 57.5 -22t22.5 -52q0 -31 -22.5 -54.5t-57.5 -23.5t-57 23.5t-22 54.5q0 30 22 52t57 22zM201 0h-136v440h136v-440z" />
    <glyph glyph-name="j" unicode="j" horiz-adv-x="286" 
d="M147 705q36 0 61 -22t25 -52t-25 -54t-61 -24t-61 24t-25 54t25 52t61 22zM215 440v-409q0 -60 -24 -129.5t-72 -115.5l-102 61q28 33 45 85.5t17 98.5v409h136z" />
    <glyph glyph-name="k" unicode="k" horiz-adv-x="546" 
d="M378 0l-170 212v-212h-136v710h136v-431l143 161h160l-177 -193l202 -247h-158z" />
    <glyph glyph-name="l" unicode="l" horiz-adv-x="283" 
d="M210 0h-136v710h136v-710z" />
    <glyph glyph-name="m" unicode="m" horiz-adv-x="848" 
d="M212 440v-45q18 27 48.5 42t64.5 15q41 0 74.5 -22.5t47.5 -64.5q15 36 58.5 63t94.5 27q22 0 42.5 -3.5t45 -16.5t42.5 -34.5t30 -61.5t12 -93v-246h-136v246q0 99 -64 99q-30 0 -55.5 -23.5t-25.5 -75.5v-246h-135v246q0 99 -63 99q-31 0 -56 -23.5t-25 -75.5v-246
h-136v440h136z" />
    <glyph glyph-name="n" unicode="n" horiz-adv-x="573" 
d="M212 440v-45q18 27 48.5 42t64.5 15q20 0 39 -3.5t44.5 -16t44 -33.5t31.5 -60.5t13 -92.5v-246h-136v246q0 99 -68 99q-31 0 -56 -23.5t-25 -75.5v-246h-136v440h136z" />
    <glyph glyph-name="o" unicode="o" horiz-adv-x="582" 
d="M290 452q112 0 182.5 -68t70.5 -164q0 -97 -70.5 -164.5t-182.5 -67.5t-182 67.5t-70 164.5q0 96 70 164t182 68zM290 342q-44 0 -78.5 -36t-34.5 -86t34.5 -85.5t78.5 -35.5t79 35.5t35 85.5t-35 86t-79 36z" />
    <glyph glyph-name="p" unicode="p" horiz-adv-x="573" 
d="M208 440v-55q19 30 54.5 48.5t71.5 18.5q93 0 148 -70.5t55 -161.5t-55 -161.5t-148 -70.5q-39 0 -73 18.5t-53 48.5v-295h-136v680h136zM304 341q-34 0 -65 -36t-31 -85q0 -50 30 -86t66 -36q43 0 71 35.5t28 86.5t-27.5 86t-71.5 35z" />
    <glyph glyph-name="q" unicode="q" horiz-adv-x="573" 
d="M365 -240v295q-19 -30 -53 -48.5t-73 -18.5q-93 0 -148 70.5t-55 161.5t55 161.5t148 70.5q36 0 71.5 -18.5t54.5 -48.5v55h136v-680h-136zM269 341q-44 0 -71.5 -35t-27.5 -86t28 -86.5t71 -35.5q36 0 66 36t30 86q0 49 -31 85t-65 36z" />
    <glyph glyph-name="r" unicode="r" horiz-adv-x="429" 
d="M208 440v-45q18 27 48.5 42t64.5 15q67 0 101 -47l-82 -93q-16 33 -54 33q-30 0 -54 -27.5t-24 -95.5v-222h-136v440h136z" />
    <glyph glyph-name="s" unicode="s" horiz-adv-x="449" 
d="M37 53l51 91q35 -23 75 -39t64 -16q43 0 43 33t-52 53l-61 23q-44 17 -72.5 47.5t-28.5 68.5q0 63 47.5 100.5t102.5 37.5q50 0 87 -12t84 -39l-52 -90q-52 41 -101 41q-13 0 -23 -7t-12 -17q-7 -29 27 -42l88 -34q98 -37 98 -116q0 -60 -46.5 -104t-116.5 -44
q-44 0 -100 18t-102 47z" />
    <glyph glyph-name="t" unicode="t" horiz-adv-x="351" 
d="M235 440h105v-105h-105v-335h-136v335h-89l225 322v-217z" />
    <glyph glyph-name="u" unicode="u" horiz-adv-x="561" 
d="M491 0h-136v45q-18 -27 -48.5 -42t-64.5 -15q-20 0 -39 3.5t-44.5 16t-44 33.5t-31.5 60.5t-13 92.5v246h136v-246q0 -99 68 -99q31 0 56 23.5t25 75.5v246h136v-440z" />
    <glyph glyph-name="v" unicode="v" horiz-adv-x="503" 
d="M252 -20l-251 460h146l105 -225l104 225h146z" />
    <glyph glyph-name="w" unicode="w" horiz-adv-x="773" 
d="M506 -20l-119 217l-120 -217l-266 460h142l129 -238l60 95l-78 143h133l115 -237l128 237h142z" />
    <glyph glyph-name="x" unicode="x" horiz-adv-x="539" 
d="M346 232l192 -232h-162l-107 130l-106 -130h-162l190 232l-171 208h162l87 -109l88 109h162z" />
    <glyph glyph-name="y" unicode="y" horiz-adv-x="524" 
d="M218 -240h-138l118 275l-193 405h148l109 -257l109 257h148z" />
    <glyph glyph-name="z" unicode="z" horiz-adv-x="472" 
d="M235 104h202v-104h-412l216 335h-184v105h391z" />
    <glyph glyph-name="braceleft" unicode="{" horiz-adv-x="381" 
d="M331 762v-102q-20 1 -32 -1t-19 -3.5t-9.5 -10t-3.5 -13t0 -21.5t1 -26v-127q0 -60 -23.5 -102t-50.5 -64q27 -19 50.5 -62t23.5 -103v-131q0 -10 -0.5 -25t-0.5 -20t1.5 -13.5t5 -10.5t11 -5t18.5 -3h28v-100h-87q-46 0 -74 35.5t-28 88.5v165q0 69 -21.5 107.5
t-69.5 53.5v49q91 26 91 155v166q0 54 28 88.5t74 34.5h87z" />
    <glyph glyph-name="bar" unicode="|" horiz-adv-x="637" 
d="M391 0h-145v759h145v-759z" />
    <glyph glyph-name="braceright" unicode="}" horiz-adv-x="381" 
d="M50 762h86q46 0 74 -34.5t28 -88.5v-166q0 -129 92 -155v-49q-48 -15 -70 -53.5t-22 -107.5v-165q0 -53 -28 -88.5t-74 -35.5h-86v100q20 -1 31 1t18.5 3t10 10t3 13t0 22t-0.5 28v131q0 59 24 102t50 63q-27 22 -50.5 64t-23.5 102v127q0 9 0.5 23t0.5 19t-1.5 13
t-5 10.5t-10.5 6t-18 4t-28 -0.5v102z" />
    <glyph glyph-name="asciitilde" unicode="~" horiz-adv-x="686" 
d="M524 396l106 -75q-31 -56 -82.5 -88t-108.5 -32q-40 0 -95.5 29.5t-81.5 29.5q-64 0 -102 -74l-104 73q30 56 81.5 88.5t109.5 32.5q40 0 96 -30.5t82 -30.5q31 0 57.5 20.5t41.5 56.5z" />
    <glyph glyph-name="exclamdown" unicode="&#xa1;" horiz-adv-x="381" 
d="M190 455q35 0 56.5 -23.5t21.5 -52.5q0 -30 -21.5 -53t-56.5 -23q-32 0 -54.5 23.5t-22.5 52.5q0 28 22.5 52t54.5 24zM267 -255h-153l5 467h143z" />
    <glyph glyph-name="cent" unicode="&#xa2;" horiz-adv-x="635" 
d="M427 149l90 -72q-40 -55 -115 -78v-80h-137v80q-75 22 -125 84.5t-50 140.5q0 73 49 136t126 85v79h137v-78q73 -19 111 -72l-89 -70q-14 15 -21.5 21.5t-26.5 15t-42 8.5q-42 0 -77.5 -33.5t-35.5 -91.5q0 -59 35.5 -93.5t77.5 -34.5q9 0 17.5 1.5t15 4t14 7t12 7.5
t11 9t9 8.5t8 8.5t6.5 7z" />
    <glyph glyph-name="sterling" unicode="&#xa3;" horiz-adv-x="668" 
d="M112 388v51q0 124 66 196t173 72q92 0 168.5 -62.5t85.5 -149.5h-142q-13 41 -43 65t-68 25q-45 -1 -70.5 -38.5t-25.5 -107.5v-51h222v-112h-222v-158h374v-118h-593v118h75v158h-75v112h75z" />
    <glyph glyph-name="currency" unicode="&#xa4;" horiz-adv-x="661" 
d="M623 558l-81 -80q41 -58 41 -130q0 -73 -42 -131l81 -81l-80 -81l-87 89q-56 -28 -125 -28q-68 0 -124 27l-88 -87l-80 80l81 81q-41 58 -41 131t42 132l-80 81l80 79l87 -87q56 27 123 27q70 0 126 -28l87 86zM330 227q44 0 79 35.5t35 85.5t-35 86t-79 36t-78.5 -36
t-34.5 -86t34.5 -85.5t78.5 -35.5z" />
    <glyph glyph-name="yen" unicode="&#xa5;" horiz-adv-x="740" 
d="M514 413h119v-106h-193v-46h193v-106h-193v-155h-142v155h-191v106h191v46h-191v106h118l-206 282h154l197 -268l197 268h154z" />
    <glyph glyph-name="brokenbar" unicode="&#xa6;" horiz-adv-x="637" 
d="M391 450h-145v309h145v-309zM391 0h-145v310h145v-310z" />
    <glyph glyph-name="section" unicode="&#xa7;" horiz-adv-x="600" 
d="M104 32h124q-1 -58 21 -79.5t45 -21.5q60 0 60 71q0 34 -19 51.5t-62 32.5q-91 36 -131 72.5t-40 110.5q0 84 78 146q-64 53 -64 120q0 71 56.5 121.5t139.5 50.5q44 0 87.5 -21t65.5 -50q33 -55 31 -138h-124q1 103 -61 103q-31 0 -48 -18t-17 -53q0 -18 5 -31t18 -23
t20.5 -14t29 -12t27.5 -11q71 -29 99 -52q53 -46 53 -120q0 -84 -78 -141q64 -54 64 -129q0 -72 -53.5 -120.5t-136.5 -48.5q-89 0 -140.5 55.5t-49.5 148.5zM302 349q-28 0 -49 -23t-21 -56q0 -35 20.5 -57t49.5 -22q27 0 46.5 22t19.5 57q0 33 -20 56t-46 23z" />
    <glyph glyph-name="dieresis" unicode="&#xa8;" horiz-adv-x="533" 
d="M160 705q35 0 57 -23.5t22 -53.5q0 -29 -22 -52t-57 -23q-32 0 -55.5 23t-23.5 52t23.5 53t55.5 24zM373 705q35 0 57 -23.5t22 -53.5q0 -29 -22 -52t-57 -23q-32 0 -55.5 23t-23.5 52t23.5 53t55.5 24z" />
    <glyph glyph-name="copyright" unicode="&#xa9;" horiz-adv-x="755" 
d="M378 707q160 0 264.5 -104.5t104.5 -254.5t-105 -255t-264 -105q-160 0 -265 105t-105 255q0 149 105 254t265 105zM378 596q-100 0 -171 -71.5t-71 -176.5t71 -176t171 -71t170.5 71t70.5 176t-70.5 176.5t-170.5 71.5zM459 293l71 -57q-23 -33 -64.5 -57t-89.5 -24
q-80 0 -135.5 58t-55.5 139q0 77 53 135t138 58q49 0 89 -21.5t62 -53.5l-72 -59q-24 37 -70 37q-36 0 -62 -26t-26 -70q0 -45 26.5 -72t61.5 -27q24 0 44.5 12t29.5 28z" />
    <glyph glyph-name="ordfeminine" unicode="&#xaa;" horiz-adv-x="374" 
d="M332 440h-94l-49 118l-50 -118h-94l144 275zM354 286h-333v87h333v-87z" />
    <glyph glyph-name="guillemotleft" unicode="&#xab;" horiz-adv-x="571" 
d="M288 365l-122 -141l123 -136l-85 -66l-163 202l163 207zM503 365l-124 -141l123 -137l-84 -65l-163 202l164 207z" />
    <glyph glyph-name="logicalnot" unicode="&#xac;" horiz-adv-x="602" 
d="M536 60h-136v144h-334v114h470v-258z" />
    <glyph glyph-name="softhyphen" unicode="&#xad;" horiz-adv-x="438" 
d="M372 204h-306v114h306v-114z" />
    <glyph glyph-name="registered" unicode="&#xae;" horiz-adv-x="755" 
d="M378 707q154 0 261.5 -105.5t107.5 -253.5t-107.5 -254t-261.5 -106t-262 106t-108 254t108 253.5t262 105.5zM471 307l67 -143q76 71 76 184q0 106 -68 177t-168 71t-168.5 -71t-68.5 -177t68.5 -176.5t168.5 -70.5q86 0 150 54h-97l-54 139h-29v-139h-105v381h153
q60 0 104.5 -32.5t44.5 -88.5q0 -75 -74 -108zM348 374h45q50 0 50 41q0 40 -50 40h-45v-81z" />
    <glyph glyph-name="macron" unicode="&#xaf;" horiz-adv-x="555" 
d="M448 575h-340v104h340v-104z" />
    <glyph glyph-name="degree" unicode="&#xb0;" horiz-adv-x="400" 
d="M199 707q66 0 108.5 -40.5t42.5 -98.5t-43 -99t-108 -41q-61 0 -105 41.5t-44 98.5t43.5 98t105.5 41zM199 620q-19 0 -33.5 -14.5t-14.5 -37.5q0 -24 15 -40t33 -16q19 0 34 16t15 40q0 23 -15 37.5t-34 14.5z" />
    <glyph glyph-name="plusminus" unicode="&#xb1;" horiz-adv-x="570" 
d="M353 392h151v-114h-151v-111h-136v111h-151v114h151v112h136v-112zM504 0h-438v114h438v-114z" />
    <glyph glyph-name="twosuperior" unicode="&#xb2;" horiz-adv-x="373" 
d="M155 583h-96q0 46 36 85t91 39q53 0 87 -29t34 -66q0 -42 -30 -83l-61 -85h102v-79h-263l118 155q41 55 41 79q0 32 -28 32q-14 0 -22.5 -13t-8.5 -35z" />
    <glyph glyph-name="threesuperior" unicode="&#xb3;" horiz-adv-x="364" 
d="M308 695l-93 -123q39 -1 66.5 -31t27.5 -72q0 -46 -36 -79t-90 -33q-45 0 -81.5 23.5t-46.5 68.5h104q7 -13 25 -13q13 0 22.5 9t9.5 24q0 18 -10 29t-23 11q-21 0 -32 -20h-92l106 131h-98v75h241z" />
    <glyph glyph-name="acute" unicode="&#xb4;" horiz-adv-x="382" 
d="M78 576l72 90q44 56 83 56q31 0 51.5 -19t20.5 -47q0 -48 -70 -73l-133 -48z" />
    <glyph glyph-name="paragraph" unicode="&#xb6;" horiz-adv-x="713" 
d="M655 585h-76v-724h-128v724h-68v-724h-128v396q-81 5 -135.5 58.5t-60.5 137.5q-6 90 55 166t154 76h387v-110z" />
    <glyph glyph-name="periodcentered" unicode="&#xb7;" horiz-adv-x="312" 
d="M156 332q35 0 56.5 -23t21.5 -53q0 -29 -21.5 -52.5t-56.5 -23.5q-32 0 -55 24t-23 52q0 29 23 52.5t55 23.5z" />
    <glyph glyph-name="cedilla" unicode="&#xb8;" horiz-adv-x="389" 
d="M252 0l-25 -41q13 5 33 2q31 -5 52.5 -33.5t21.5 -62.5q0 -42 -35.5 -72t-82.5 -30q-44 0 -78.5 26t-41.5 65h95q1 -12 10.5 -19.5t19.5 -7.5q11 0 20.5 10t9.5 28t-9.5 27.5t-20.5 9.5q-17 0 -23 -10h-95l53 108h96z" />
    <glyph glyph-name="onesuperior" unicode="&#xb9;" horiz-adv-x="240" 
d="M185 363h-95v211h-45v50l140 91v-352z" />
    <glyph glyph-name="ordmasculine" unicode="&#xba;" horiz-adv-x="341" 
d="M172 707q62 0 107.5 -41.5t45.5 -98.5t-45.5 -98t-107.5 -41q-65 0 -109.5 40.5t-44.5 98.5t44.5 99t109.5 41zM172 629q-24 0 -43.5 -17.5t-19.5 -44.5q0 -28 19 -45t44 -17q23 0 42.5 17.5t19.5 44.5q0 26 -20 44t-42 18zM334 286h-326v87h326v-87z" />
    <glyph glyph-name="guillemotright" unicode="&#xbb;" horiz-adv-x="571" 
d="M316 224l-163 -202l-84 65l123 137l-124 141l84 66zM530 224l-163 -202l-85 66l123 136l-122 141l84 66z" />
    <glyph glyph-name="onequarter" unicode="&#xbc;" horiz-adv-x="843" 
d="M200 363h-95v211h-45v50l140 91v-352zM286 0h-132l418 695h131zM756 116h37v-69h-37v-47h-88v48h-175l263 304v-236zM638 114h44v52z" />
    <glyph glyph-name="onehalf" unicode="&#xbd;" horiz-adv-x="886" 
d="M200 363h-95v211h-45v50l140 91v-352zM258 0h-132l418 695h131zM643 218h-96q0 46 36 85t91 39q53 0 87 -29t34 -66q0 -43 -30 -83l-61 -85h102v-79h-263l118 155q41 55 41 79q0 32 -28 32q-14 0 -22.5 -13t-8.5 -35z" />
    <glyph glyph-name="threequarters" unicode="&#xbe;" horiz-adv-x="860" 
d="M313 695l-93 -123q39 -1 66.5 -31t27.5 -72q0 -46 -36 -79t-90 -33q-45 0 -81.5 23.5t-46.5 68.5h104q6 -13 25 -13q13 0 22.5 9t9.5 24q0 18 -10 29t-23 11q-21 0 -32 -20h-92l106 131h-98v75h241zM312 0h-132l418 695h131zM773 116h37v-69h-37v-47h-88v48h-175l263 304
v-236zM655 114h44v52z" />
    <glyph glyph-name="questiondown" unicode="&#xbf;" horiz-adv-x="509" 
d="M265 452q32 0 54.5 -24t22.5 -53t-22.5 -52t-54.5 -23q-35 0 -56.5 22.5t-21.5 52.5t21.5 53.5t56.5 23.5zM338 118l-105 -122q-29 -33 -29 -69q0 -32 16.5 -53.5t42.5 -21.5q27 0 43.5 22.5t16.5 52.5v29h144v-30q-1 -78 -59.5 -135.5t-144.5 -57.5t-143.5 55.5
t-57.5 126.5q0 66 50 126l81 95l5 97h135z" />
    <glyph glyph-name="Agrave" unicode="&#xc0;" horiz-adv-x="707" 
d="M405 743l-124 28q-40 9 -60 29t-20 44q0 28 20.5 47t51.5 19q27 0 47 -13.5t46 -43.5l62 -69zM479 151h-250l-66 -151h-152l344 715l341 -715h-152zM430 265l-75 175l-76 -175h151z" />
    <glyph glyph-name="Aacute" unicode="&#xc1;" horiz-adv-x="707" 
d="M305 743l-24 42l62 69q26 29 46 42.5t47 13.5q31 0 51.5 -19t20.5 -47q0 -24 -20 -44t-60 -29zM479 151h-250l-66 -151h-152l344 715l341 -715h-152zM430 265l-75 175l-76 -175h151z" />
    <glyph glyph-name="Acircumflex" unicode="&#xc2;" horiz-adv-x="707" 
d="M272 743l-84 62l167 105l168 -105l-83 -62l-85 63zM479 151h-250l-66 -151h-152l344 715l341 -715h-152zM430 265l-75 175l-76 -175h151z" />
    <glyph glyph-name="Atilde" unicode="&#xc3;" horiz-adv-x="707" 
d="M473 897l68 -68q-21 -37 -57 -59.5t-74 -22.5q-31 0 -61 24.5t-51 24.5q-38 0 -61 -52l-67 68q21 36 57 58t74 22q31 0 61 -23.5t51 -23.5q41 0 60 52zM479 151h-250l-66 -151h-152l344 715l341 -715h-152zM430 265l-75 175l-76 -175h151z" />
    <glyph glyph-name="Adieresis" unicode="&#xc4;" horiz-adv-x="707" 
d="M249 745q-32 0 -55 23.5t-23 51.5q0 29 22.5 53t55.5 24q35 0 56.5 -23.5t21.5 -53.5q0 -29 -21.5 -52t-56.5 -23zM462 745q-32 0 -55 23.5t-23 51.5q0 29 22.5 53t55.5 24q35 0 56.5 -23.5t21.5 -53.5q0 -29 -21.5 -52t-56.5 -23zM479 151h-250l-66 -151h-152l344 715
l341 -715h-152zM430 265l-75 175l-76 -175h151z" />
    <glyph glyph-name="Aring" unicode="&#xc5;" horiz-adv-x="707" 
d="M479 151h-250l-66 -151h-152l335 695q-44 4 -72 32.5t-28 67.5q0 41 31 70.5t78 29.5q48 0 78 -29t30 -71q0 -39 -27.5 -67.5t-71.5 -32.5l332 -695h-152zM325 795q0 -14 9.5 -22t20.5 -8q10 0 19.5 8t9.5 22t-9.5 22t-19.5 8q-11 0 -20.5 -8t-9.5 -22zM430 265l-75 175
l-76 -175h151z" />
    <glyph glyph-name="AE" unicode="&#xc6;" horiz-adv-x="966" 
d="M762 572h-323l73 -163h299v-123h-243l75 -163h250v-123h-341l-61 136h-269l-63 -136h-148l323 695h428v-123zM272 257h163l-80 184z" />
    <glyph glyph-name="Ccedilla" unicode="&#xc7;" horiz-adv-x="732" 
d="M571 204l115 -89q-103 -109 -240 -124l-21 -35q13 5 33 2q31 -5 52.5 -33.5t21.5 -62.5q0 -42 -35.5 -72t-82.5 -30q-44 0 -78.5 26t-41.5 65h95q1 -12 10.5 -19.5t19.5 -7.5q11 0 20.5 10t9.5 28t-9.5 27.5t-20.5 9.5q-17 0 -23 -10h-95l50 103q-130 19 -224 121
t-94 235q0 92 48 174.5t134 133.5t187 51q88 0 158 -35t111 -90l-108 -86q-77 89 -161 89q-83 0 -152 -70.5t-69 -166.5q0 -100 64 -169t157 -69q46 0 91 26.5t78 67.5z" />
    <glyph glyph-name="Egrave" unicode="&#xc8;" horiz-adv-x="627" 
d="M363 743l-124 28q-40 9 -60 29t-20 44q0 28 20.5 47t51.5 19q27 0 47 -13.5t46 -43.5l62 -69zM549 577h-329v-164h271v-118h-271v-177h334v-118h-478v695h473v-118z" />
    <glyph glyph-name="Eacute" unicode="&#xc9;" horiz-adv-x="627" 
d="M239 785l62 69q26 29 46 42.5t47 13.5q31 0 51.5 -19t20.5 -47q0 -24 -20 -44t-60 -29l-123 -28zM549 577h-329v-164h271v-118h-271v-177h334v-118h-478v695h473v-118z" />
    <glyph glyph-name="Ecircumflex" unicode="&#xca;" horiz-adv-x="627" 
d="M481 805l-83 -62l-85 63l-83 -63l-84 62l167 105zM549 577h-329v-164h271v-118h-271v-177h334v-118h-478v695h473v-118z" />
    <glyph glyph-name="Edieresis" unicode="&#xcb;" horiz-adv-x="627" 
d="M207 897q35 0 56.5 -23.5t21.5 -53.5q0 -29 -21.5 -52t-56.5 -23q-32 0 -55 23.5t-23 51.5q0 29 22.5 53t55.5 24zM420 897q35 0 56.5 -23.5t21.5 -53.5q0 -29 -21.5 -52t-56.5 -23q-32 0 -55 23.5t-23 51.5q0 29 22.5 53t55.5 24zM549 577h-329v-164h271v-118h-271v-177
h334v-118h-478v695h473v-118z" />
    <glyph glyph-name="Igrave" unicode="&#xcc;" horiz-adv-x="303" 
d="M202 743l-124 28q-40 9 -60 29t-20 44q0 28 20.5 47t51.5 19q27 0 47 -13.5t46 -43.5l62 -69zM226 0h-148v695h148v-695z" />
    <glyph glyph-name="Iacute" unicode="&#xcd;" horiz-adv-x="303" 
d="M78 785l62 69q26 29 46 42.5t47 13.5q31 0 51.5 -19t20.5 -47q0 -24 -20 -44t-60 -29l-123 -28zM226 0h-148v695h148v-695z" />
    <glyph glyph-name="Icircumflex" unicode="&#xce;" horiz-adv-x="303" 
d="M320 805l-83 -62l-85 63l-83 -63l-84 62l167 105zM226 0h-148v695h148v-695z" />
    <glyph glyph-name="Idieresis" unicode="&#xcf;" horiz-adv-x="303" 
d="M46 897q35 0 56.5 -23.5t21.5 -53.5q0 -29 -21.5 -52t-56.5 -23q-32 0 -55 23.5t-23 51.5q0 29 22.5 53t55.5 24zM259 897q35 0 56.5 -23.5t21.5 -53.5q0 -29 -21.5 -52t-56.5 -23q-32 0 -55 23.5t-23 51.5q0 29 22.5 53t55.5 24zM226 0h-148v695h148v-695z" />
    <glyph glyph-name="Eth" unicode="&#xd0;" horiz-adv-x="744" 
d="M76 695h270q147 0 252 -102t105 -245q0 -142 -101.5 -245t-254.5 -103h-271v291h-69v122h69v282zM220 118h126q86 0 147.5 66.5t61.5 163.5q0 99 -60.5 164t-148.5 65h-126v-164h135v-122h-135v-173z" />
    <glyph glyph-name="Ntilde" unicode="&#xd1;" horiz-adv-x="775" 
d="M505 897l68 -68q-21 -37 -57 -59.5t-74 -22.5q-31 0 -61 24.5t-51 24.5q-38 0 -61 -52l-67 68q21 36 57 58t74 22q31 0 61 -23.5t51 -23.5q41 0 60 52zM550 286v409h144v-715l-469 429v-409h-144v715z" />
    <glyph glyph-name="Ograve" unicode="&#xd2;" horiz-adv-x="804" 
d="M452 743l-124 28q-40 9 -60 29t-20 44q0 28 20.5 47t51.5 19q27 0 47 -13.5t46 -43.5l62 -69zM402 707q153 0 258.5 -103t105.5 -256q0 -149 -102.5 -254.5t-261.5 -105.5q-157 0 -260.5 103.5t-103.5 256.5q0 154 100.5 256.5t263.5 102.5zM402 585q-89 0 -152.5 -67
t-63.5 -170t62.5 -170.5t153.5 -67.5q86 0 151 68.5t65 169.5q0 95 -65 166t-151 71z" />
    <glyph glyph-name="Oacute" unicode="&#xd3;" horiz-adv-x="804" 
d="M328 785l62 69q26 29 46 42.5t47 13.5q31 0 51.5 -19t20.5 -47q0 -24 -20 -44t-60 -29l-123 -28zM402 707q153 0 258.5 -103t105.5 -256q0 -149 -102.5 -254.5t-261.5 -105.5q-157 0 -260.5 103.5t-103.5 256.5q0 154 100.5 256.5t263.5 102.5zM402 585q-89 0 -152.5 -67
t-63.5 -170t62.5 -170.5t153.5 -67.5q86 0 151 68.5t65 169.5q0 95 -65 166t-151 71z" />
    <glyph glyph-name="Ocircumflex" unicode="&#xd4;" horiz-adv-x="804" 
d="M570 805l-83 -62l-85 63l-83 -63l-84 62l167 105zM402 707q153 0 258.5 -103t105.5 -256q0 -149 -102.5 -254.5t-261.5 -105.5q-157 0 -260.5 103.5t-103.5 256.5q0 154 100.5 256.5t263.5 102.5zM402 585q-89 0 -152.5 -67t-63.5 -170t62.5 -170.5t153.5 -67.5
q86 0 151 68.5t65 169.5q0 95 -65 166t-151 71z" />
    <glyph glyph-name="Otilde" unicode="&#xd5;" horiz-adv-x="804" 
d="M520 897l68 -68q-21 -37 -57 -59.5t-74 -22.5q-31 0 -61 24.5t-51 24.5q-38 0 -61 -52l-67 68q21 36 57 58t74 22q31 0 61 -23.5t51 -23.5q41 0 60 52zM402 707q153 0 258.5 -103t105.5 -256q0 -149 -102.5 -254.5t-261.5 -105.5q-157 0 -260.5 103.5t-103.5 256.5
q0 154 100.5 256.5t263.5 102.5zM402 585q-89 0 -152.5 -67t-63.5 -170t62.5 -170.5t153.5 -67.5q86 0 151 68.5t65 169.5q0 95 -65 166t-151 71z" />
    <glyph glyph-name="Odieresis" unicode="&#xd6;" horiz-adv-x="804" 
d="M296 897q35 0 56.5 -23.5t21.5 -53.5q0 -29 -21.5 -52t-56.5 -23q-32 0 -55 23.5t-23 51.5q0 29 22.5 53t55.5 24zM509 897q35 0 56.5 -23.5t21.5 -53.5q0 -29 -21.5 -52t-56.5 -23q-32 0 -55 23.5t-23 51.5q0 29 22.5 53t55.5 24zM402 707q153 0 258.5 -103t105.5 -256
q0 -149 -102.5 -254.5t-261.5 -105.5q-157 0 -260.5 103.5t-103.5 256.5q0 154 100.5 256.5t263.5 102.5zM402 585q-89 0 -152.5 -67t-63.5 -170t62.5 -170.5t153.5 -67.5q86 0 151 68.5t65 169.5q0 95 -65 166t-151 71z" />
    <glyph glyph-name="multiply" unicode="&#xd7;" horiz-adv-x="632" 
d="M566 421l-162 -160l162 -159l-93 -92l-157 165l-158 -165l-92 92l163 159l-163 160l92 91l158 -163l157 163z" />
    <glyph glyph-name="Oslash" unicode="&#xd8;" horiz-adv-x="812" 
d="M774 621l-67 -67q63 -91 63 -206q0 -149 -102.5 -254.5t-261.5 -105.5q-114 0 -206 59l-68 -68l-94 95l66 66q-62 94 -62 208q0 154 100.5 256.5t263.5 102.5q113 0 205 -60l69 69zM210 246l305 305q-53 34 -109 34q-89 0 -152.5 -67t-63.5 -170q0 -56 20 -102zM601 448
l-306 -306q49 -32 111 -32q86 0 151 68.5t65 169.5q0 50 -21 100z" />
    <glyph glyph-name="Ugrave" unicode="&#xd9;" 
d="M431 743l-124 28q-40 9 -60 29t-20 44q0 28 20.5 47t51.5 19q27 0 47 -13.5t46 -43.5l62 -69zM689 695v-412q0 -134 -86.5 -214.5t-221.5 -80.5q-134 0 -220.5 80.5t-86.5 214.5v412h144v-412q0 -82 50 -127.5t113 -45.5t113 45.5t50 127.5v412h145z" />
    <glyph glyph-name="Uacute" unicode="&#xda;" 
d="M307 785l62 69q26 29 46 42.5t47 13.5q31 0 51.5 -19t20.5 -47q0 -24 -20 -44t-60 -29l-123 -28zM689 695v-412q0 -134 -86.5 -214.5t-221.5 -80.5q-134 0 -220.5 80.5t-86.5 214.5v412h144v-412q0 -82 50 -127.5t113 -45.5t113 45.5t50 127.5v412h145z" />
    <glyph glyph-name="Ucircumflex" unicode="&#xdb;" 
d="M549 805l-83 -62l-85 63l-83 -63l-84 62l167 105zM689 695v-412q0 -134 -86.5 -214.5t-221.5 -80.5q-134 0 -220.5 80.5t-86.5 214.5v412h144v-412q0 -82 50 -127.5t113 -45.5t113 45.5t50 127.5v412h145z" />
    <glyph glyph-name="Udieresis" unicode="&#xdc;" 
d="M275 897q35 0 56.5 -23.5t21.5 -53.5q0 -29 -21.5 -52t-56.5 -23q-32 0 -55 23.5t-23 51.5q0 29 22.5 53t55.5 24zM488 897q35 0 56.5 -23.5t21.5 -53.5q0 -29 -21.5 -52t-56.5 -23q-32 0 -55 23.5t-23 51.5q0 29 22.5 53t55.5 24zM689 695v-412q0 -134 -86.5 -214.5
t-221.5 -80.5q-134 0 -220.5 80.5t-86.5 214.5v412h144v-412q0 -82 50 -127.5t113 -45.5t113 45.5t50 127.5v412h145z" />
    <glyph glyph-name="Yacute" unicode="&#xdd;" horiz-adv-x="646" 
d="M249 785l62 69q26 29 46 42.5t47 13.5q31 0 51.5 -19t20.5 -47q0 -24 -20 -44t-60 -29l-123 -28zM395 312v-312h-144v312l-243 383h156l159 -263l159 263h157z" />
    <glyph glyph-name="Thorn" unicode="&#xde;" horiz-adv-x="604" 
d="M220 573h114q91 0 165 -68t74 -157t-71.5 -157t-167.5 -68h-114v-123h-144v695h144v-122zM220 454v-212h114q35 0 63 31.5t28 74.5t-27.5 74.5t-63.5 31.5h-114z" />
    <glyph glyph-name="germandbls" unicode="&#xdf;" horiz-adv-x="583" 
d="M72 0v499q0 101 56 162t156 61q85 0 143.5 -54t58.5 -138q0 -33 -15.5 -67t-40.5 -53q45 -20 81 -66t36 -116q0 -104 -79 -167.5t-201 -60.5v111q65 -4 105 26t40 93t-41 95t-104 27v96q29 -9 57 16.5t28 67.5q0 37 -20 58t-48 21q-29 0 -48.5 -29.5t-19.5 -82.5v-499
h-144z" />
    <glyph glyph-name="agrave" unicode="&#xe0;" horiz-adv-x="540" 
d="M316 535l-134 48q-70 25 -70 73q0 28 20.5 47t51.5 19q39 0 83 -56l72 -90zM154 315l-66 71q67 66 178 66q78 0 139 -43.5t61 -114.5v-181q0 -63 10 -113h-122q-7 28 -7 60q-17 -36 -52 -54t-72 -18q-75 0 -123.5 42.5t-48.5 103.5q0 119 165 136q71 8 114 18v4
q0 29 -18 45t-46 16q-66 0 -112 -38zM330 171v27q-23 -4 -94 -14q-52 -7 -52 -50q0 -18 14 -30t43 -12q39 0 64 19.5t25 59.5z" />
    <glyph glyph-name="aacute" unicode="&#xe1;" horiz-adv-x="540" 
d="M192 576l72 90q44 56 83 56q31 0 51.5 -19t20.5 -47q0 -48 -70 -73l-133 -48zM154 315l-66 71q67 66 178 66q78 0 139 -43.5t61 -114.5v-181q0 -63 10 -113h-122q-7 28 -7 60q-17 -36 -52 -54t-72 -18q-75 0 -123.5 42.5t-48.5 103.5q0 119 165 136q71 8 114 18v4
q0 29 -18 45t-46 16q-66 0 -112 -38zM330 171v27q-23 -4 -94 -14q-52 -7 -52 -50q0 -18 14 -30t43 -12q39 0 64 19.5t25 59.5z" />
    <glyph glyph-name="acircumflex" unicode="&#xe2;" horiz-adv-x="540" 
d="M444 607l-78 -62l-100 73l-98 -73l-79 62l177 115zM154 315l-66 71q67 66 178 66q78 0 139 -43.5t61 -114.5v-181q0 -63 10 -113h-122q-7 28 -7 60q-17 -36 -52 -54t-72 -18q-75 0 -123.5 42.5t-48.5 103.5q0 119 165 136q71 8 114 18v4q0 29 -18 45t-46 16
q-66 0 -112 -38zM330 171v27q-23 -4 -94 -14q-52 -7 -52 -50q0 -18 14 -30t43 -12q39 0 64 19.5t25 59.5z" />
    <glyph glyph-name="atilde" unicode="&#xe3;" horiz-adv-x="540" 
d="M383 705l68 -68q-21 -37 -57 -59.5t-74 -22.5q-31 0 -61 24t-51 24q-38 0 -61 -51l-67 67q21 37 57 59t74 22q31 0 61 -23.5t51 -23.5q42 0 60 52zM154 315l-66 71q67 66 178 66q78 0 139 -43.5t61 -114.5v-181q0 -63 10 -113h-122q-7 28 -7 60q-17 -36 -52 -54t-72 -18
q-75 0 -123.5 42.5t-48.5 103.5q0 119 165 136q71 8 114 18v4q0 29 -18 45t-46 16q-66 0 -112 -38zM330 171v27q-23 -4 -94 -14q-52 -7 -52 -50q0 -18 14 -30t43 -12q39 0 64 19.5t25 59.5z" />
    <glyph glyph-name="adieresis" unicode="&#xe4;" horiz-adv-x="540" 
d="M160 705q35 0 57 -23.5t22 -53.5q0 -29 -22 -52t-57 -23q-32 0 -55.5 23t-23.5 52t23.5 53t55.5 24zM373 705q35 0 57 -23.5t22 -53.5q0 -29 -22 -52t-57 -23q-32 0 -55.5 23t-23.5 52t23.5 53t55.5 24zM154 315l-66 71q67 66 178 66q78 0 139 -43.5t61 -114.5v-181
q0 -63 10 -113h-122q-7 28 -7 60q-17 -36 -52 -54t-72 -18q-75 0 -123.5 42.5t-48.5 103.5q0 119 165 136q71 8 114 18v4q0 29 -18 45t-46 16q-66 0 -112 -38zM330 171v27q-23 -4 -94 -14q-52 -7 -52 -50q0 -18 14 -30t43 -12q39 0 64 19.5t25 59.5z" />
    <glyph glyph-name="aring" unicode="&#xe5;" horiz-adv-x="540" 
d="M266 732q48 0 78 -29t30 -71t-30 -71t-78 -29q-47 0 -78 29.5t-31 70.5t31 70.5t78 29.5zM266 662q-11 0 -20.5 -8t-9.5 -22t9.5 -22t20.5 -8q10 0 19.5 8t9.5 22t-9.5 22t-19.5 8zM154 315l-66 71q67 66 178 66q78 0 139 -43.5t61 -114.5v-181q0 -63 10 -113h-122
q-7 28 -7 60q-17 -36 -52 -54t-72 -18q-75 0 -123.5 42.5t-48.5 103.5q0 119 165 136q71 8 114 18v4q0 29 -18 45t-46 16q-66 0 -112 -38zM330 171v27q-23 -4 -94 -14q-52 -7 -52 -50q0 -18 14 -30t43 -12q39 0 64 19.5t25 59.5z" />
    <glyph glyph-name="ae" unicode="&#xe6;" horiz-adv-x="804" 
d="M680 152l91 -48q-26 -50 -80 -83t-134 -33q-88 0 -159 68q-65 -68 -179 -68q-69 0 -118.5 43t-49.5 103t42.5 93t120.5 38l112 4v28q0 26 -16.5 39t-38.5 13q-28 0 -63.5 -10.5t-60.5 -29.5l-61 73q62 70 185 70q81 0 137 -54q63 54 140 54q55 0 98 -17.5t66 -45
t38 -62.5t15.5 -69.5t-3.5 -65.5l-299 -5q2 -39 31.5 -68.5t69.5 -29.5q73 0 116 63zM466 272l172 6q-6 32 -28.5 53t-58.5 21q-34 0 -57 -21.5t-28 -58.5zM326 184l-86 -4q-55 -5 -55 -46q0 -20 14.5 -31t39.5 -11q38 0 62.5 19.5t24.5 49.5v23z" />
    <glyph glyph-name="ccedilla" unicode="&#xe7;" horiz-adv-x="487" 
d="M383 159l76 -78q-70 -75 -148 -89l-20 -33q13 5 33 2q31 -5 52.5 -33.5t21.5 -62.5q0 -42 -35.5 -72t-82.5 -30q-44 0 -78.5 26t-41.5 65h95q1 -12 10.5 -19.5t19.5 -7.5q11 0 20.5 10t9.5 28t-9.5 27.5t-20.5 9.5q-17 0 -23 -10h-95l50 101q-81 16 -134.5 75.5
t-53.5 150.5q0 75 37.5 130t89.5 79t107 24q100 0 183 -80l-67 -83q-55 53 -112 53q-45 0 -74.5 -35.5t-29.5 -87.5q0 -50 31 -85t78 -35q63 0 111 60z" />
    <glyph glyph-name="egrave" unicode="&#xe8;" horiz-adv-x="521" 
d="M311 535l-134 48q-70 25 -70 73q0 28 20.5 47t51.5 19q39 0 83 -56l72 -90zM383 141l100 -48q-30 -50 -82.5 -77.5t-116.5 -27.5q-99 0 -174.5 63.5t-75.5 169.5q0 105 69.5 168t157.5 63q101 0 164 -65.5t63 -163.5q0 -24 -4 -37h-316q6 -42 40 -70t83 -28q28 0 54 15
t38 38zM166 272h192q-5 34 -31.5 57t-65.5 23q-32 0 -61 -23.5t-34 -56.5z" />
    <glyph glyph-name="eacute" unicode="&#xe9;" horiz-adv-x="521" 
d="M187 576l72 90q44 56 83 56q31 0 51.5 -19t20.5 -47q0 -48 -70 -73l-133 -48zM383 141l100 -48q-30 -50 -82.5 -77.5t-116.5 -27.5q-99 0 -174.5 63.5t-75.5 169.5q0 105 69.5 168t157.5 63q101 0 164 -65.5t63 -163.5q0 -24 -4 -37h-316q6 -42 40 -70t83 -28q28 0 54 15
t38 38zM166 272h192q-5 34 -31.5 57t-65.5 23q-32 0 -61 -23.5t-34 -56.5z" />
    <glyph glyph-name="ecircumflex" unicode="&#xea;" horiz-adv-x="521" 
d="M439 607l-78 -62l-100 73l-98 -73l-79 62l177 115zM383 141l100 -48q-30 -50 -82.5 -77.5t-116.5 -27.5q-99 0 -174.5 63.5t-75.5 169.5q0 105 69.5 168t157.5 63q101 0 164 -65.5t63 -163.5q0 -24 -4 -37h-316q6 -42 40 -70t83 -28q28 0 54 15t38 38zM166 272h192
q-5 34 -31.5 57t-65.5 23q-32 0 -61 -23.5t-34 -56.5z" />
    <glyph glyph-name="edieresis" unicode="&#xeb;" horiz-adv-x="521" 
d="M155 705q35 0 57 -23.5t22 -53.5q0 -29 -22 -52t-57 -23q-32 0 -55.5 23t-23.5 52t23.5 53t55.5 24zM368 705q35 0 57 -23.5t22 -53.5q0 -29 -22 -52t-57 -23q-32 0 -55.5 23t-23.5 52t23.5 53t55.5 24zM383 141l100 -48q-30 -50 -82.5 -77.5t-116.5 -27.5
q-99 0 -174.5 63.5t-75.5 169.5q0 105 69.5 168t157.5 63q101 0 164 -65.5t63 -163.5q0 -24 -4 -37h-316q6 -42 40 -70t83 -28q28 0 54 15t38 38zM166 272h192q-5 34 -31.5 57t-65.5 23q-32 0 -61 -23.5t-34 -56.5z" />
    <glyph glyph-name="igrave" unicode="&#xec;" horiz-adv-x="280" 
d="M190 535l-134 48q-70 25 -70 73q0 28 20.5 47t51.5 19q39 0 83 -56l72 -90zM208 0h-136v440h136v-440z" />
    <glyph glyph-name="iacute" unicode="&#xed;" horiz-adv-x="280" 
d="M66 576l72 90q44 56 83 56q31 0 51.5 -19t20.5 -47q0 -48 -70 -73l-133 -48zM208 0h-136v440h136v-440z" />
    <glyph glyph-name="icircumflex" unicode="&#xee;" horiz-adv-x="280" 
d="M318 607l-78 -62l-100 73l-98 -73l-79 62l177 115zM208 0h-136v440h136v-440z" />
    <glyph glyph-name="idieresis" unicode="&#xef;" horiz-adv-x="280" 
d="M34 705q35 0 57 -23.5t22 -53.5q0 -29 -22 -52t-57 -23q-32 0 -55.5 23t-23.5 52t23.5 53t55.5 24zM247 705q35 0 57 -23.5t22 -53.5q0 -29 -22 -52t-57 -23q-32 0 -55.5 23t-23.5 52t23.5 53t55.5 24zM208 0h-136v440h136v-440z" />
    <glyph glyph-name="eth" unicode="&#xf0;" horiz-adv-x="565" 
d="M531 557l-81 -13q80 -203 59 -352q-13 -89 -77 -146.5t-162 -57.5q-105 0 -170.5 67.5t-65.5 164.5q0 95 65.5 163.5t163.5 68.5q53 0 85 -12q-9 35 -29 84l-81 -13l-31 88l74 12q-32 62 -66 118h141q31 -46 56 -98l88 14zM270 99q42 0 72.5 35t30.5 86q0 58 -31 90
t-72 32q-40 0 -71 -32t-31 -90q0 -51 30 -86t72 -35z" />
    <glyph glyph-name="ntilde" unicode="&#xf1;" horiz-adv-x="573" 
d="M403 705l68 -68q-21 -37 -57 -59.5t-74 -22.5q-31 0 -61 24t-51 24q-38 0 -61 -51l-67 67q21 37 57 59t74 22q31 0 61 -23.5t51 -23.5q42 0 60 52zM212 440v-45q18 27 48.5 42t64.5 15q20 0 39 -3.5t44.5 -16t44 -33.5t31.5 -60.5t13 -92.5v-246h-136v246q0 99 -68 99
q-31 0 -56 -23.5t-25 -75.5v-246h-136v440h136z" />
    <glyph glyph-name="ograve" unicode="&#xf2;" horiz-adv-x="582" 
d="M340 535l-134 48q-70 25 -70 73q0 28 20.5 47t51.5 19q39 0 83 -56l72 -90zM290 452q112 0 182.5 -68t70.5 -164q0 -97 -70.5 -164.5t-182.5 -67.5t-182 67.5t-70 164.5q0 96 70 164t182 68zM290 342q-44 0 -78.5 -36t-34.5 -86t34.5 -85.5t78.5 -35.5t79 35.5t35 85.5
t-35 86t-79 36z" />
    <glyph glyph-name="oacute" unicode="&#xf3;" horiz-adv-x="582" 
d="M216 576l72 90q44 56 83 56q31 0 51.5 -19t20.5 -47q0 -48 -70 -73l-133 -48zM290 452q112 0 182.5 -68t70.5 -164q0 -97 -70.5 -164.5t-182.5 -67.5t-182 67.5t-70 164.5q0 96 70 164t182 68zM290 342q-44 0 -78.5 -36t-34.5 -86t34.5 -85.5t78.5 -35.5t79 35.5t35 85.5
t-35 86t-79 36z" />
    <glyph glyph-name="ocircumflex" unicode="&#xf4;" horiz-adv-x="582" 
d="M468 607l-78 -62l-100 73l-98 -73l-79 62l177 115zM290 452q112 0 182.5 -68t70.5 -164q0 -97 -70.5 -164.5t-182.5 -67.5t-182 67.5t-70 164.5q0 96 70 164t182 68zM290 342q-44 0 -78.5 -36t-34.5 -86t34.5 -85.5t78.5 -35.5t79 35.5t35 85.5t-35 86t-79 36z" />
    <glyph glyph-name="otilde" unicode="&#xf5;" horiz-adv-x="582" 
d="M407 705l68 -68q-21 -37 -57 -59.5t-74 -22.5q-31 0 -61 24t-51 24q-38 0 -61 -51l-67 67q21 37 57 59t74 22q31 0 61 -23.5t51 -23.5q42 0 60 52zM290 452q112 0 182.5 -68t70.5 -164q0 -97 -70.5 -164.5t-182.5 -67.5t-182 67.5t-70 164.5q0 96 70 164t182 68zM290 342
q-44 0 -78.5 -36t-34.5 -86t34.5 -85.5t78.5 -35.5t79 35.5t35 85.5t-35 86t-79 36z" />
    <glyph glyph-name="odieresis" unicode="&#xf6;" horiz-adv-x="582" 
d="M184 705q35 0 57 -23.5t22 -53.5q0 -29 -22 -52t-57 -23q-32 0 -55.5 23t-23.5 52t23.5 53t55.5 24zM397 705q35 0 57 -23.5t22 -53.5q0 -29 -22 -52t-57 -23q-32 0 -55.5 23t-23.5 52t23.5 53t55.5 24zM290 452q112 0 182.5 -68t70.5 -164q0 -97 -70.5 -164.5
t-182.5 -67.5t-182 67.5t-70 164.5q0 96 70 164t182 68zM290 342q-44 0 -78.5 -36t-34.5 -86t34.5 -85.5t78.5 -35.5t79 35.5t35 85.5t-35 86t-79 36z" />
    <glyph glyph-name="divide" unicode="&#xf7;" horiz-adv-x="582" 
d="M292 534q35 0 60 -24t25 -53q0 -28 -25 -51t-60 -23q-33 0 -59 23.5t-26 50.5q0 28 26.5 52.5t58.5 24.5zM516 204h-450v114h450v-114zM298 140q35 0 60 -24t25 -53t-24.5 -52t-60.5 -23q-33 0 -59 23.5t-26 51.5t26.5 52.5t58.5 24.5z" />
    <glyph glyph-name="oslash" unicode="&#xf8;" horiz-adv-x="555" 
d="M520 389l-40 -40q41 -58 41 -127q0 -95 -72 -164.5t-172 -69.5q-66 0 -124 33l-42 -42l-76 76l39 40q-40 59 -40 127q0 93 71.5 161.5t171.5 68.5q66 0 122 -32l45 45zM169 189l145 146q-21 7 -37 7q-44 0 -78.5 -35t-34.5 -85q0 -16 5 -33zM386 255l-147 -148
q19 -8 38 -8q44 0 79 36.5t35 86.5q0 16 -5 33z" />
    <glyph glyph-name="ugrave" unicode="&#xf9;" horiz-adv-x="561" 
d="M330 535l-134 48q-70 25 -70 73q0 28 20.5 47t51.5 19q39 0 83 -56l72 -90zM491 0h-136v45q-18 -27 -48.5 -42t-64.5 -15q-20 0 -39 3.5t-44.5 16t-44 33.5t-31.5 60.5t-13 92.5v246h136v-246q0 -99 68 -99q31 0 56 23.5t25 75.5v246h136v-440z" />
    <glyph glyph-name="uacute" unicode="&#xfa;" horiz-adv-x="561" 
d="M206 576l72 90q44 56 83 56q31 0 51.5 -19t20.5 -47q0 -48 -70 -73l-133 -48zM491 0h-136v45q-18 -27 -48.5 -42t-64.5 -15q-20 0 -39 3.5t-44.5 16t-44 33.5t-31.5 60.5t-13 92.5v246h136v-246q0 -99 68 -99q31 0 56 23.5t25 75.5v246h136v-440z" />
    <glyph glyph-name="ucircumflex" unicode="&#xfb;" horiz-adv-x="561" 
d="M458 607l-78 -62l-100 73l-98 -73l-79 62l177 115zM491 0h-136v45q-18 -27 -48.5 -42t-64.5 -15q-20 0 -39 3.5t-44.5 16t-44 33.5t-31.5 60.5t-13 92.5v246h136v-246q0 -99 68 -99q31 0 56 23.5t25 75.5v246h136v-440z" />
    <glyph glyph-name="udieresis" unicode="&#xfc;" horiz-adv-x="561" 
d="M174 705q35 0 57 -23.5t22 -53.5q0 -29 -22 -52t-57 -23q-32 0 -55.5 23t-23.5 52t23.5 53t55.5 24zM387 705q35 0 57 -23.5t22 -53.5q0 -29 -22 -52t-57 -23q-32 0 -55.5 23t-23.5 52t23.5 53t55.5 24zM491 0h-136v45q-18 -27 -48.5 -42t-64.5 -15q-20 0 -39 3.5
t-44.5 16t-44 33.5t-31.5 60.5t-13 92.5v246h136v-246q0 -99 68 -99q31 0 56 23.5t25 75.5v246h136v-440z" />
    <glyph glyph-name="yacute" unicode="&#xfd;" horiz-adv-x="524" 
d="M188 576l72 90q44 56 83 56q31 0 51.5 -19t20.5 -47q0 -48 -70 -73l-133 -48zM218 -240h-138l118 275l-193 405h148l109 -257l109 257h148z" />
    <glyph glyph-name="thorn" unicode="&#xfe;" horiz-adv-x="576" 
d="M208 710v-325q19 30 54.5 48.5t71.5 18.5q93 0 148 -70.5t55 -161.5t-55 -161.5t-148 -70.5q-39 0 -73 18.5t-53 48.5v-295h-136v950h136zM304 341q-34 0 -65 -36t-31 -85q0 -50 30 -86t66 -36q43 0 71 35.5t28 86.5t-27.5 86t-71.5 35z" />
    <glyph glyph-name="ydieresis" unicode="&#xff;" horiz-adv-x="524" 
d="M156 705q35 0 57 -23.5t22 -53.5q0 -29 -22 -52t-57 -23q-32 0 -55.5 23t-23.5 52t23.5 53t55.5 24zM369 705q35 0 57 -23.5t22 -53.5q0 -29 -22 -52t-57 -23q-32 0 -55.5 23t-23.5 52t23.5 53t55.5 24zM218 -240h-138l118 275l-193 405h148l109 -257l109 257h148z" />
    <glyph glyph-name="Amacron" unicode="&#x100;" horiz-adv-x="707" 
d="M525 767h-340v104h340v-104zM479 151h-250l-66 -151h-152l344 715l341 -715h-152zM430 265l-75 175l-76 -175h151z" />
    <glyph glyph-name="amacron" unicode="&#x101;" horiz-adv-x="540" 
d="M436 575h-340v104h340v-104zM154 315l-66 71q67 66 178 66q78 0 139 -43.5t61 -114.5v-181q0 -63 10 -113h-122q-7 28 -7 60q-17 -36 -52 -54t-72 -18q-75 0 -123.5 42.5t-48.5 103.5q0 119 165 136q71 8 114 18v4q0 29 -18 45t-46 16q-66 0 -112 -38zM330 171v27
q-23 -4 -94 -14q-52 -7 -52 -50q0 -18 14 -30t43 -12q39 0 64 19.5t25 59.5z" />
    <glyph glyph-name="Abreve" unicode="&#x102;" horiz-adv-x="707" 
d="M417 898h100q2 -61 -41 -108t-121 -47q-79 0 -122 47t-42 108h106q-2 -34 13.5 -54.5t44.5 -20.5q30 0 46.5 20.5t15.5 54.5zM479 151h-250l-66 -151h-152l344 715l341 -715h-152zM430 265l-75 175l-76 -175h151z" />
    <glyph glyph-name="abreve" unicode="&#x103;" horiz-adv-x="540" 
d="M328 710h100q2 -62 -41 -108.5t-121 -46.5q-79 0 -122 46.5t-42 108.5h106q-2 -35 13 -55t45 -20t46.5 20t15.5 55zM154 315l-66 71q67 66 178 66q78 0 139 -43.5t61 -114.5v-181q0 -63 10 -113h-122q-7 28 -7 60q-17 -36 -52 -54t-72 -18q-75 0 -123.5 42.5t-48.5 103.5
q0 119 165 136q71 8 114 18v4q0 29 -18 45t-46 16q-66 0 -112 -38zM330 171v27q-23 -4 -94 -14q-52 -7 -52 -50q0 -18 14 -30t43 -12q39 0 64 19.5t25 59.5z" />
    <glyph glyph-name="Aogonek" unicode="&#x104;" horiz-adv-x="707" 
d="M727 -102l-10 -74l-45 -8q-59 -11 -97.5 13.5t-38.5 64.5q0 59 70 106h-62l-65 151h-250l-66 -151h-152l344 715l341 -715h-2q-20 -15 -37 -40.5t-17 -45.5q0 -18 14 -23.5t31 -1.5zM430 265l-75 175l-76 -175h151z" />
    <glyph glyph-name="aogonek" unicode="&#x105;" horiz-adv-x="540" 
d="M508 -103l-10 -74l-45 -8q-59 -11 -97.5 13.5t-38.5 64.5q0 60 72 107h-35q-7 28 -7 60q-17 -36 -52 -54t-72 -18q-75 0 -123.5 42.5t-48.5 103.5q0 119 165 136q71 8 114 18v4q0 29 -18 45t-46 16q-66 0 -112 -38l-66 71q67 66 178 66q78 0 139 -43.5t61 -114.5v-181
q0 -63 10 -113q-20 -14 -37.5 -40.5t-17.5 -46.5q0 -18 14 -23.5t31 -1.5zM330 171v27q-23 -4 -94 -14q-52 -7 -52 -50q0 -18 14 -30t43 -12q39 0 64 19.5t25 59.5z" />
    <glyph glyph-name="Cacute" unicode="&#x106;" horiz-adv-x="732" 
d="M328 784l62 69q26 29 46 42.5t47 13.5q31 0 51.5 -19t20.5 -47q0 -24 -20 -44t-60 -29l-123 -28zM571 204l115 -89q-120 -127 -284 -127q-145 0 -257 106.5t-112 253.5q0 92 48 174.5t134 133.5t187 51q88 0 158 -35t111 -90l-108 -86q-77 89 -161 89q-83 0 -152 -70.5
t-69 -166.5q0 -100 64 -169t157 -69q46 0 91 26.5t78 67.5z" />
    <glyph glyph-name="cacute" unicode="&#x107;" horiz-adv-x="487" 
d="M189 576l72 90q44 56 83 56q31 0 51.5 -19t20.5 -47q0 -48 -70 -73l-133 -48zM383 159l76 -78q-86 -93 -191 -93q-97 0 -168 62.5t-71 168.5q0 75 37.5 130t89.5 79t107 24q100 0 183 -80l-67 -83q-55 53 -112 53q-45 0 -74.5 -35.5t-29.5 -87.5q0 -50 31 -85t78 -35
q63 0 111 60z" />
    <glyph glyph-name="Cdotaccent" unicode="&#x10a;" horiz-adv-x="732" 
d="M402 895q35 0 56.5 -23.5t21.5 -53.5q0 -29 -21.5 -52t-56.5 -23q-32 0 -54.5 23.5t-22.5 51.5q0 29 22.5 53t54.5 24zM571 204l115 -89q-120 -127 -284 -127q-145 0 -257 106.5t-112 253.5q0 92 48 174.5t134 133.5t187 51q88 0 158 -35t111 -90l-108 -86
q-77 89 -161 89q-83 0 -152 -70.5t-69 -166.5q0 -100 64 -169t157 -69q46 0 91 26.5t78 67.5z" />
    <glyph glyph-name="cdotaccent" unicode="&#x10b;" horiz-adv-x="487" 
d="M263 705q35 0 56.5 -23.5t21.5 -53.5t-21.5 -52.5t-56.5 -22.5q-32 0 -54.5 23t-22.5 52t22.5 53t54.5 24zM383 159l76 -78q-86 -93 -191 -93q-97 0 -168 62.5t-71 168.5q0 75 37.5 130t89.5 79t107 24q100 0 183 -80l-67 -83q-55 53 -112 53q-45 0 -74.5 -35.5
t-29.5 -87.5q0 -50 31 -85t78 -35q63 0 111 60z" />
    <glyph glyph-name="Ccaron" unicode="&#x10c;" horiz-adv-x="732" 
d="M569 847l-167 -105l-168 105l78 62l90 -63l88 63zM571 204l115 -89q-120 -127 -284 -127q-145 0 -257 106.5t-112 253.5q0 92 48 174.5t134 133.5t187 51q88 0 158 -35t111 -90l-108 -86q-77 89 -161 89q-83 0 -152 -70.5t-69 -166.5q0 -100 64 -169t157 -69
q46 0 91 26.5t78 67.5z" />
    <glyph glyph-name="ccaron" unicode="&#x10d;" horiz-adv-x="487" 
d="M440 660l-177 -115l-178 115l88 62l90 -73l88 73zM383 159l76 -78q-86 -93 -191 -93q-97 0 -168 62.5t-71 168.5q0 75 37.5 130t89.5 79t107 24q100 0 183 -80l-67 -83q-55 53 -112 53q-45 0 -74.5 -35.5t-29.5 -87.5q0 -50 31 -85t78 -35q63 0 111 60z" />
    <glyph glyph-name="Dcaron" unicode="&#x10e;" horiz-adv-x="744" 
d="M516 848l-167 -105l-168 105l78 62l90 -63l88 63zM76 695h270q147 0 252 -102t105 -245q0 -142 -101.5 -245t-254.5 -103h-271v695zM220 577v-459h126q86 0 147.5 66.5t61.5 163.5q0 99 -60.5 164t-148.5 65h-126z" />
    <glyph glyph-name="dcaron" unicode="&#x10f;" horiz-adv-x="644" 
d="M506 0h-136v55q-19 -30 -54.5 -48.5t-71.5 -18.5q-93 0 -148 70.5t-55 161.5t55 161.5t148 70.5q39 0 73 -18.5t53 -48.5v325h136v-710zM531 482l20 164q3 24 21 42.5t44 18.5q28 0 43.5 -18.5t15.5 -42.5q0 -16 -15 -37l-97 -127h-32zM274 342q-43 0 -71 -35.5
t-28 -86.5t27.5 -86t71.5 -35q34 0 65 36t31 85q0 50 -30 86t-66 36z" />
    <glyph glyph-name="Dcroat" unicode="&#x110;" horiz-adv-x="744" 
d="M76 695h270q147 0 252 -102t105 -245q0 -142 -101.5 -245t-254.5 -103h-271v291h-69v122h69v282zM220 118h126q86 0 147.5 66.5t61.5 163.5q0 99 -60.5 164t-148.5 65h-126v-164h135v-122h-135v-173z" />
    <glyph glyph-name="dcroat" unicode="&#x111;" horiz-adv-x="567" 
d="M567 535h-61v-535h-136v55q-19 -30 -54.5 -48.5t-71.5 -18.5q-93 0 -148 70.5t-55 161.5t55 161.5t148 70.5q39 0 73 -18.5t53 -48.5v150h-143v104h143v71h136v-71h61v-104zM274 99q34 0 65 36t31 85q0 50 -30 86t-66 36q-43 0 -71 -35.5t-28 -86.5t27.5 -86t71.5 -35z
" />
    <glyph glyph-name="Emacron" unicode="&#x112;" horiz-adv-x="627" 
d="M483 767h-340v104h340v-104zM549 577h-329v-164h271v-118h-271v-177h334v-118h-478v695h473v-118z" />
    <glyph glyph-name="emacron" unicode="&#x113;" horiz-adv-x="521" 
d="M431 575h-340v104h340v-104zM383 141l100 -48q-30 -50 -82.5 -77.5t-116.5 -27.5q-99 0 -174.5 63.5t-75.5 169.5q0 105 69.5 168t157.5 63q101 0 164 -65.5t63 -163.5q0 -24 -4 -37h-316q6 -42 40 -70t83 -28q28 0 54 15t38 38zM166 272h192q-5 34 -31.5 57t-65.5 23
q-32 0 -61 -23.5t-34 -56.5z" />
    <glyph glyph-name="Edotaccent" unicode="&#x116;" horiz-adv-x="627" 
d="M313 896q35 0 56.5 -23.5t21.5 -53.5q0 -29 -21.5 -52t-56.5 -23q-32 0 -54.5 23.5t-22.5 51.5q0 29 22.5 53t54.5 24zM549 577h-329v-164h271v-118h-271v-177h334v-118h-478v695h473v-118z" />
    <glyph glyph-name="edotaccent" unicode="&#x117;" horiz-adv-x="521" 
d="M261 705q35 0 56.5 -23.5t21.5 -53.5t-21.5 -52.5t-56.5 -22.5q-32 0 -54.5 23t-22.5 52t22.5 53t54.5 24zM383 141l100 -48q-30 -50 -82.5 -77.5t-116.5 -27.5q-99 0 -174.5 63.5t-75.5 169.5q0 105 69.5 168t157.5 63q101 0 164 -65.5t63 -163.5q0 -24 -4 -37h-316
q6 -42 40 -70t83 -28q28 0 54 15t38 38zM166 272h192q-5 34 -31.5 57t-65.5 23q-32 0 -61 -23.5t-34 -56.5z" />
    <glyph glyph-name="Eogonek" unicode="&#x118;" horiz-adv-x="627" 
d="M586 -103l-10 -74l-45 -8q-59 -11 -97.5 13.5t-38.5 64.5q0 60 72 107h-391v695h473v-118h-329v-164h271v-118h-271v-177h334v-118q-20 -14 -37.5 -40.5t-17.5 -46.5q0 -18 14 -23.5t31 -1.5z" />
    <glyph glyph-name="eogonek" unicode="&#x119;" horiz-adv-x="521" 
d="M465 -132l-45 -8q-59 -11 -97.5 13.5t-38.5 64.5q0 27 13 50h-13q-99 0 -174.5 63.5t-75.5 169.5q0 105 69.5 168t157.5 63q101 0 164 -65.5t63 -163.5q0 -24 -4 -37h-316q6 -42 40 -70t83 -28q28 0 54 15t38 38l100 -48q-21 -35 -53 -59q-42 -40 -42 -76q0 -18 14 -23.5
t31 -1.5l42 9zM166 272h192q-5 34 -31.5 57t-65.5 23q-32 0 -61 -23.5t-34 -56.5z" />
    <glyph glyph-name="Ecaron" unicode="&#x11a;" horiz-adv-x="627" 
d="M480 848l-167 -105l-168 105l78 62l90 -63l88 63zM549 577h-329v-164h271v-118h-271v-177h334v-118h-478v695h473v-118z" />
    <glyph glyph-name="ecaron" unicode="&#x11b;" horiz-adv-x="521" 
d="M438 660l-177 -115l-178 115l88 62l90 -73l88 73zM383 141l100 -48q-30 -50 -82.5 -77.5t-116.5 -27.5q-99 0 -174.5 63.5t-75.5 169.5q0 105 69.5 168t157.5 63q101 0 164 -65.5t63 -163.5q0 -24 -4 -37h-316q6 -42 40 -70t83 -28q28 0 54 15t38 38zM166 272h192
q-5 34 -31.5 57t-65.5 23q-32 0 -61 -23.5t-34 -56.5z" />
    <glyph glyph-name="Gbreve" unicode="&#x11e;" horiz-adv-x="753" 
d="M463 898h100q2 -61 -41 -108t-121 -47q-79 0 -122 47t-42 108h106q-2 -34 13.5 -54.5t44.5 -20.5q30 0 46.5 20.5t15.5 54.5zM700 407v-270q-56 -71 -134 -110t-165 -39q-145 0 -257 106.5t-112 253.5q0 92 48 174.5t134 133.5t187 51q88 0 161.5 -35t113.5 -90l-109 -88
q-79 91 -166 91q-83 0 -152 -70.5t-69 -166.5q0 -100 64 -169t157 -69q91 0 157 71v108h-172v118h314z" />
    <glyph glyph-name="gbreve" unicode="&#x11f;" horiz-adv-x="577" 
d="M354 710h100q2 -62 -41 -108.5t-121 -46.5q-79 0 -122 46.5t-42 108.5h106q-2 -35 13 -55t45 -20t46.5 20t15.5 55zM379 439l44 45q50 -28 93 -75l-43 -42q36 -39 36 -93q0 -72 -57.5 -119.5t-159.5 -47.5q-50 0 -98 14l-3 -3q-26 -27 6 -44q27 -14 95 -14q109 0 157 -14
q91 -25 91 -133q0 -71 -65 -118t-183 -47q-122 0 -187.5 48t-65.5 117q0 46 51 103q-30 27 -27.5 69.5t33.5 73.5l16 16q-37 38 -37 99q0 72 65.5 125t151.5 53q57 0 87 -13zM292 347q-31 0 -57 -19.5t-26 -53.5q0 -35 24.5 -53.5t58.5 -18.5t58.5 18.5t24.5 53.5
q0 34 -26 53.5t-57 19.5zM185 -30q-28 -22 -28 -52q0 -26 35.5 -41t99.5 -15q62 0 93.5 15t31.5 41q0 28 -25 36q-34 10 -100 10q-78 0 -107 6z" />
    <glyph glyph-name="Gdotaccent" unicode="&#x120;" horiz-adv-x="753" 
d="M401 744q-32 0 -54.5 23.5t-22.5 51.5q0 29 22.5 53t54.5 24q35 0 56.5 -23.5t21.5 -53.5q0 -29 -21.5 -52t-56.5 -23zM700 407v-270q-56 -71 -134 -110t-165 -39q-145 0 -257 106.5t-112 253.5q0 92 48 174.5t134 133.5t187 51q88 0 161.5 -35t113.5 -90l-109 -88
q-79 91 -166 91q-83 0 -152 -70.5t-69 -166.5q0 -100 64 -169t157 -69q91 0 157 71v108h-172v118h314z" />
    <glyph glyph-name="gdotaccent" unicode="&#x121;" horiz-adv-x="577" 
d="M292 705q35 0 56.5 -23.5t21.5 -53.5t-21.5 -52.5t-56.5 -22.5q-32 0 -54.5 23t-22.5 52t22.5 53t54.5 24zM379 439l44 45q50 -28 93 -75l-43 -42q36 -39 36 -93q0 -72 -57.5 -119.5t-159.5 -47.5q-50 0 -98 14l-3 -3q-26 -27 6 -44q27 -14 95 -14q109 0 157 -14
q91 -25 91 -133q0 -71 -65 -118t-183 -47q-122 0 -187.5 48t-65.5 117q0 46 51 103q-30 27 -27.5 69.5t33.5 73.5l16 16q-37 38 -37 99q0 72 65.5 125t151.5 53q57 0 87 -13zM292 347q-31 0 -57 -19.5t-26 -53.5q0 -35 24.5 -53.5t58.5 -18.5t58.5 18.5t24.5 53.5
q0 34 -26 53.5t-57 19.5zM185 -30q-28 -22 -28 -52q0 -26 35.5 -41t99.5 -15q62 0 93.5 15t31.5 41q0 28 -25 36q-34 10 -100 10q-78 0 -107 6z" />
    <glyph glyph-name="Gcommaaccent" unicode="&#x122;" horiz-adv-x="753" 
d="M700 407v-270q-56 -71 -134 -110t-165 -39q-145 0 -257 106.5t-112 253.5q0 92 48 174.5t134 133.5t187 51q88 0 161.5 -35t113.5 -90l-109 -88q-79 91 -166 91q-83 0 -152 -70.5t-69 -166.5q0 -100 64 -169t157 -69q91 0 157 71v108h-172v118h314zM316 -335v196
q0 28 26.5 52.5t58.5 24.5q35 0 55 -23.5t20 -53.5q0 -16 -11 -35l-95 -161h-54z" />
    <glyph glyph-name="gcommaaccent" unicode="&#x123;" horiz-adv-x="543" 
d="M379 775v-196q0 -28 -25 -52.5t-57 -24.5q-34 0 -53.5 23t-19.5 54q0 16 11 35l100 161h44zM384 439l44 45q50 -28 93 -75l-43 -42q36 -39 36 -93q0 -72 -57.5 -119.5t-159.5 -47.5q-50 0 -98 14l-3 -3q-26 -27 6 -44q27 -14 95 -14q109 0 157 -14q91 -25 91 -133
q0 -71 -65 -118t-183 -47q-122 0 -187.5 48t-65.5 117q0 46 51 103q-30 27 -27.5 69.5t33.5 73.5l16 16q-37 38 -37 99q0 72 65.5 125t151.5 53q57 0 87 -13zM297 347q-31 0 -57 -19.5t-26 -53.5q0 -35 24.5 -53.5t58.5 -18.5t58.5 18.5t24.5 53.5q0 34 -26 53.5t-57 19.5z
M190 -30q-28 -22 -28 -52q0 -26 35.5 -41t99.5 -15q62 0 93.5 15t31.5 41q0 28 -25 36q-34 10 -100 10q-78 0 -107 6z" />
    <glyph glyph-name="Hbar" unicode="&#x126;" horiz-adv-x="767" 
d="M762 495h-75v-495h-144v289h-319v-289h-144v495h-75v104h75v96h144v-96h319v96h144v-96h75v-104zM543 495h-319v-88h319v88z" />
    <glyph glyph-name="hbar" unicode="&#x127;" horiz-adv-x="553" 
d="M212 526v-119q29 45 93 45q37 0 66 -8t57 -28.5t43.5 -63.5t15.5 -106v-246h-136v246q0 55 -16 77t-47 22q-30 0 -53 -23.5t-23 -75.5v-246h-136v526h-71v104h71v80h136v-80h133v-104h-133z" />
    <glyph glyph-name="Imacron" unicode="&#x12a;" horiz-adv-x="303" 
d="M322 767h-340v104h340v-104zM226 0h-148v695h148v-695z" />
    <glyph glyph-name="imacron" unicode="&#x12b;" horiz-adv-x="280" 
d="M310 575h-340v104h340v-104zM208 0h-136v440h136v-440z" />
    <glyph glyph-name="Iogonek" unicode="&#x12e;" horiz-adv-x="303" 
d="M258 -103l-10 -74l-45 -8q-59 -11 -97.5 13.5t-38.5 64.5q0 60 72 107h-61v695h148v-695q-20 -14 -37.5 -40.5t-17.5 -46.5q0 -18 14 -23.5t31 -1.5z" />
    <glyph glyph-name="iogonek" unicode="&#x12f;" horiz-adv-x="280" 
d="M140 553q-32 0 -54.5 23t-22.5 52t22.5 53t54.5 24q35 0 56.5 -23.5t21.5 -53.5t-21.5 -52.5t-56.5 -22.5zM240 -103l-10 -74l-45 -8q-59 -11 -97.5 13.5t-38.5 64.5q0 60 72 107h-49v440h136v-440q-20 -14 -37.5 -40.5t-17.5 -46.5q0 -18 14 -23.5t31 -1.5z" />
    <glyph glyph-name="Idotaccent" unicode="&#x130;" horiz-adv-x="303" 
d="M152 896q35 0 56.5 -23.5t21.5 -53.5q0 -29 -21.5 -52t-56.5 -23q-32 0 -54.5 23.5t-22.5 51.5q0 29 22.5 53t54.5 24zM226 0h-148v695h148v-695z" />
    <glyph glyph-name="dotlessi" unicode="&#x131;" horiz-adv-x="280" 
d="M208 0h-136v440h136v-440z" />
    <glyph glyph-name="IJ" unicode="&#x132;" horiz-adv-x="647" 
d="M226 0h-148v695h148v-695zM569 695v-614q0 -133 -98 -228.5t-234 -88.5v122q78 -7 131.5 50t53.5 145v614h147z" />
    <glyph glyph-name="ij" unicode="&#x133;" horiz-adv-x="553" 
d="M133 707q35 0 57.5 -22t22.5 -52q0 -31 -22.5 -54.5t-57.5 -23.5t-57 23.5t-22 54.5q0 30 22 52t57 22zM414 705q36 0 61 -22t25 -52t-25 -54t-61 -24t-61 24t-25 54t25 52t61 22zM201 0h-136v440h136v-440zM482 440v-409q0 -60 -24 -129.5t-72 -115.5l-102 61
q28 33 45 85.5t17 98.5v409h136z" />
    <glyph glyph-name="Kcommaaccent" unicode="&#x136;" horiz-adv-x="692" 
d="M672 0h-165l-216 306l-71 -77v-229h-144v695h144v-291l258 291h170l-264 -288zM267 -335v196q0 28 25 52.5t57 24.5q34 0 53.5 -23t19.5 -54q0 -16 -11 -35l-100 -161h-44z" />
    <glyph glyph-name="kcommaaccent" unicode="&#x137;" horiz-adv-x="546" 
d="M536 0h-158l-170 212v-212h-136v710h136v-431l143 161h160l-177 -193zM186 -335v196q0 28 25 52.5t57 24.5q34 0 53.5 -23t19.5 -54q0 -16 -11 -35l-100 -161h-44z" />
    <glyph glyph-name="Lacute" unicode="&#x139;" horiz-adv-x="560" 
d="M224 785l62 69q26 29 46 42.5t47 13.5q31 0 51.5 -19t20.5 -47q0 -24 -20 -44t-60 -29l-123 -28zM220 118h320v-118h-464v695h144v-577z" />
    <glyph glyph-name="lacute" unicode="&#x13a;" horiz-adv-x="283" 
d="M68 785l62 69q26 29 46 42.5t47 13.5q31 0 51.5 -19t20.5 -47q0 -24 -20 -44t-60 -29l-123 -28zM210 0h-136v710h136v-710z" />
    <glyph glyph-name="Lcommaaccent" unicode="&#x13b;" horiz-adv-x="560" 
d="M220 118h320v-118h-464v695h144v-577zM216 -335v196q0 28 25 52.5t57 24.5q34 0 53.5 -23t19.5 -54q0 -16 -11 -35l-100 -161h-44z" />
    <glyph glyph-name="lcommaaccent" unicode="&#x13c;" horiz-adv-x="283" 
d="M210 0h-136v710h136v-710zM60 -335v196q0 28 25 52.5t57 24.5q34 0 53.5 -23t19.5 -54q0 -16 -11 -35l-100 -161h-44z" />
    <glyph glyph-name="Lcaron" unicode="&#x13d;" horiz-adv-x="560" 
d="M292 482l20 164q3 24 21 42.5t44 18.5q28 0 43.5 -18.5t15.5 -42.5q0 -16 -15 -37l-97 -127h-32zM225 118h320v-118h-464v695h144v-577z" />
    <glyph glyph-name="lcaron" unicode="&#x13e;" horiz-adv-x="356" 
d="M215 0h-136v710h136v-710zM246 482l20 164q3 24 21 42.5t44 18.5q28 0 43.5 -18.5t15.5 -42.5q0 -16 -15 -37l-97 -127h-32z" />
    <glyph glyph-name="Ldot" unicode="&#x13f;" horiz-adv-x="560" 
d="M220 118h320v-118h-464v695h144v-577zM393 452q35 0 56.5 -23t21.5 -53q0 -29 -21.5 -52.5t-56.5 -23.5q-32 0 -55 24t-23 52q0 29 23 52.5t55 23.5z" />
    <glyph glyph-name="ldot" unicode="&#x140;" horiz-adv-x="381" 
d="M215 0h-136v710h136v-710zM338 431q35 0 56.5 -23t21.5 -53q0 -29 -21.5 -52.5t-56.5 -23.5q-32 0 -55 24t-23 52q0 29 23 52.5t55 23.5z" />
    <glyph glyph-name="Lslash" unicode="&#x141;" horiz-adv-x="577" 
d="M557 118v-118h-463v294l-69 -17v119l69 17v282h144v-248l124 30v-119l-124 -30v-210h319z" />
    <glyph glyph-name="lslash" unicode="&#x142;" horiz-adv-x="364" 
d="M344 363l-128 -31v-332h-136v300l-73 -18v119l73 18v291h136v-259l128 31v-119z" />
    <glyph glyph-name="Nacute" unicode="&#x143;" horiz-adv-x="775" 
d="M313 785l62 69q26 29 46 42.5t47 13.5q31 0 51.5 -19t20.5 -47q0 -24 -20 -44t-60 -29l-123 -28zM550 286v409h144v-715l-469 429v-409h-144v715z" />
    <glyph glyph-name="nacute" unicode="&#x144;" horiz-adv-x="573" 
d="M212 576l72 90q44 56 83 56q31 0 51.5 -19t20.5 -47q0 -48 -70 -73l-133 -48zM212 440v-45q18 27 48.5 42t64.5 15q20 0 39 -3.5t44.5 -16t44 -33.5t31.5 -60.5t13 -92.5v-246h-136v246q0 99 -68 99q-31 0 -56 -23.5t-25 -75.5v-246h-136v440h136z" />
    <glyph glyph-name="Ncommaaccent" unicode="&#x145;" horiz-adv-x="775" 
d="M550 286v409h144v-715l-469 429v-409h-144v715zM305 -335v196q0 28 25 52.5t57 24.5q34 0 53.5 -23t19.5 -54q0 -16 -11 -35l-100 -161h-44z" />
    <glyph glyph-name="ncommaaccent" unicode="&#x146;" horiz-adv-x="573" 
d="M212 440v-45q18 27 48.5 42t64.5 15q20 0 39 -3.5t44.5 -16t44 -33.5t31.5 -60.5t13 -92.5v-246h-136v246q0 99 -68 99q-31 0 -56 -23.5t-25 -75.5v-246h-136v440h136zM204 -335v196q0 28 25 52.5t57 24.5q34 0 53.5 -23t19.5 -54q0 -16 -11 -35l-100 -161h-44z" />
    <glyph glyph-name="Ncaron" unicode="&#x147;" horiz-adv-x="775" 
d="M554 848l-167 -105l-168 105l78 62l90 -63l88 63zM550 286v409h144v-715l-469 429v-409h-144v715z" />
    <glyph glyph-name="ncaron" unicode="&#x148;" horiz-adv-x="573" 
d="M463 660l-177 -115l-178 115l88 62l90 -73l88 73zM212 440v-45q18 27 48.5 42t64.5 15q20 0 39 -3.5t44.5 -16t44 -33.5t31.5 -60.5t13 -92.5v-246h-136v246q0 99 -68 99q-31 0 -56 -23.5t-25 -75.5v-246h-136v440h136z" />
    <glyph glyph-name="Eng" unicode="&#x14a;" horiz-adv-x="775" 
d="M694 695v-614q0 -133 -98 -228.5t-234 -88.5v122q78 -7 133 50.5t55 144.5v30l-325 298v-409h-144v715l469 -429v409h144z" />
    <glyph glyph-name="eng" unicode="&#x14b;" horiz-adv-x="563" 
d="M212 440v-33q29 45 93 45q37 0 66 -8t57 -28.5t43.5 -63.5t15.5 -106v-246q0 -122 -96 -214l-102 61q62 73 62 153v246q0 55 -16 77t-47 22q-30 0 -53 -23.5t-23 -75.5v-246h-136v440h136z" />
    <glyph glyph-name="Omacron" unicode="&#x14c;" horiz-adv-x="804" 
d="M572 767h-340v104h340v-104zM402 707q153 0 258.5 -103t105.5 -256q0 -149 -102.5 -254.5t-261.5 -105.5q-157 0 -260.5 103.5t-103.5 256.5q0 154 100.5 256.5t263.5 102.5zM402 585q-89 0 -152.5 -67t-63.5 -170t62.5 -170.5t153.5 -67.5q86 0 151 68.5t65 169.5
q0 95 -65 166t-151 71z" />
    <glyph glyph-name="omacron" unicode="&#x14d;" horiz-adv-x="582" 
d="M460 575h-340v104h340v-104zM290 452q112 0 182.5 -68t70.5 -164q0 -97 -70.5 -164.5t-182.5 -67.5t-182 67.5t-70 164.5q0 96 70 164t182 68zM290 342q-44 0 -78.5 -36t-34.5 -86t34.5 -85.5t78.5 -35.5t79 35.5t35 85.5t-35 86t-79 36z" />
    <glyph glyph-name="Ohungarumlaut" unicode="&#x150;" horiz-adv-x="804" 
d="M213 784l62 70q27 30 46.5 43t46.5 13q31 0 51.5 -19t20.5 -47q0 -24 -20 -44t-60 -29l-124 -28zM444 784l62 70q26 29 46 42.5t47 13.5q31 0 51.5 -19t20.5 -47q0 -24 -20 -44t-60 -29l-123 -28zM402 707q153 0 258.5 -103t105.5 -256q0 -149 -102.5 -254.5
t-261.5 -105.5q-157 0 -260.5 103.5t-103.5 256.5q0 154 100.5 256.5t263.5 102.5zM402 585q-89 0 -152.5 -67t-63.5 -170t62.5 -170.5t153.5 -67.5q86 0 151 68.5t65 169.5q0 95 -65 166t-151 71z" />
    <glyph glyph-name="ohungarumlaut" unicode="&#x151;" horiz-adv-x="582" 
d="M111 596l62 70q27 30 46.5 43t46.5 13q31 0 51.5 -19t20.5 -47q0 -24 -20 -44t-60 -29l-124 -28zM342 596l62 70q26 29 46 42.5t47 13.5q31 0 51.5 -19t20.5 -47q0 -24 -20 -44t-60 -29l-123 -28zM290 452q112 0 182.5 -68t70.5 -164q0 -97 -70.5 -164.5t-182.5 -67.5
t-182 67.5t-70 164.5q0 96 70 164t182 68zM290 342q-44 0 -78.5 -36t-34.5 -86t34.5 -85.5t78.5 -35.5t79 35.5t35 85.5t-35 86t-79 36z" />
    <glyph glyph-name="OE" unicode="&#x152;" horiz-adv-x="1169" 
d="M1101 118v-118h-478v58q-94 -70 -221 -70q-157 0 -260.5 103.5t-103.5 256.5q0 154 100.5 256.5t263.5 102.5q125 0 221 -71v59h473v-118h-329v-164h271v-118h-271v-177h334zM402 110q86 0 151 68.5t65 169.5q0 95 -65 166t-151 71q-89 0 -152.5 -67t-63.5 -170
t62.5 -170.5t153.5 -67.5z" />
    <glyph glyph-name="oe" unicode="&#x153;" horiz-adv-x="886" 
d="M756 141l100 -48q-30 -50 -82.5 -77.5t-116.5 -27.5q-109 0 -182 70q-72 -70 -185 -70q-112 0 -182 67.5t-70 164.5q0 96 70 164t182 68q110 0 182 -67q67 67 162 67q101 0 164 -65.5t63 -163.5q0 -24 -4 -37h-316q6 -42 40 -70t83 -28q28 0 54 15t38 38zM539 272h192
q-5 34 -31.5 57t-65.5 23q-32 0 -61 -23.5t-34 -56.5zM290 99q44 0 79 35.5t35 85.5t-35 86t-79 36t-78.5 -36t-34.5 -86t34.5 -85.5t78.5 -35.5z" />
    <glyph glyph-name="Racute" unicode="&#x154;" horiz-adv-x="677" 
d="M249 785l62 69q26 29 46 42.5t47 13.5q31 0 51.5 -19t20.5 -47q0 -24 -20 -44t-60 -29l-123 -28zM76 695h284q107 0 176.5 -56.5t69.5 -148.5q0 -65 -38.5 -116.5t-95.5 -76.5l155 -297h-159l-147 285h-103v-285h-142v695zM218 577v-174h145q101 0 101 87
q0 42 -26.5 64.5t-77.5 22.5h-142z" />
    <glyph glyph-name="racute" unicode="&#x155;" horiz-adv-x="429" 
d="M151 576l72 90q44 56 83 56q31 0 51.5 -19t20.5 -47q0 -48 -70 -73l-133 -48zM208 440v-45q18 27 48.5 42t64.5 15q67 0 101 -47l-82 -93q-16 33 -54 33q-30 0 -54 -27.5t-24 -95.5v-222h-136v440h136z" />
    <glyph glyph-name="Rcommaaccent" unicode="&#x156;" horiz-adv-x="677" 
d="M76 695h284q107 0 176.5 -56.5t69.5 -148.5q0 -65 -38.5 -116.5t-95.5 -76.5l155 -297h-159l-147 285h-103v-285h-142v695zM218 577v-174h145q101 0 101 87q0 42 -26.5 64.5t-77.5 22.5h-142zM241 -335v196q0 28 25 52.5t57 24.5q34 0 53.5 -23t19.5 -54q0 -16 -11 -35
l-100 -161h-44z" />
    <glyph glyph-name="rcommaaccent" unicode="&#x157;" horiz-adv-x="429" 
d="M208 440v-45q18 27 48.5 42t64.5 15q67 0 101 -47l-82 -93q-16 33 -54 33q-30 0 -54 -27.5t-24 -95.5v-222h-136v440h136zM58 -335v196q0 28 25 52.5t57 24.5q34 0 53.5 -23t19.5 -54q0 -16 -11 -35l-100 -161h-44z" />
    <glyph glyph-name="Rcaron" unicode="&#x158;" horiz-adv-x="677" 
d="M490 848l-167 -105l-168 105l78 62l90 -63l88 63zM76 695h284q107 0 176.5 -56.5t69.5 -148.5q0 -65 -38.5 -116.5t-95.5 -76.5l155 -297h-159l-147 285h-103v-285h-142v695zM218 577v-174h145q101 0 101 87q0 42 -26.5 64.5t-77.5 22.5h-142z" />
    <glyph glyph-name="rcaron" unicode="&#x159;" horiz-adv-x="429" 
d="M402 660l-177 -115l-178 115l88 62l90 -73l88 73zM208 440v-45q18 27 48.5 42t64.5 15q67 0 101 -47l-82 -93q-16 33 -54 33q-30 0 -54 -27.5t-24 -95.5v-222h-136v440h136z" />
    <glyph glyph-name="Sacute" unicode="&#x15a;" horiz-adv-x="630" 
d="M227 785l62 69q26 29 46 42.5t47 13.5q31 0 51.5 -19t20.5 -47q0 -24 -20 -44t-60 -29l-123 -28zM356 276l-106 40q-170 62 -170 206q0 80 64.5 132.5t156.5 52.5q112 0 252 -78l-61 -111q-68 38 -106.5 52.5t-71.5 14.5q-46 0 -66 -22.5t-20 -50.5q0 -50 51 -71l134 -52
q160 -62 160 -196q0 -91 -71.5 -148t-174.5 -57q-58 0 -137.5 28t-149.5 71l62 112q141 -89 230 -89q45 0 69 23.5t24 59.5q0 58 -69 83z" />
    <glyph glyph-name="sacute" unicode="&#x15b;" horiz-adv-x="449" 
d="M151 576l72 90q44 56 83 56q31 0 51.5 -19t20.5 -47q0 -48 -70 -73l-133 -48zM37 53l51 91q35 -23 75 -39t64 -16q43 0 43 33t-52 53l-61 23q-44 17 -72.5 47.5t-28.5 68.5q0 63 47.5 100.5t102.5 37.5q50 0 87 -12t84 -39l-52 -90q-52 41 -101 41q-13 0 -23 -7t-12 -17
q-7 -29 27 -42l88 -34q98 -37 98 -116q0 -60 -46.5 -104t-116.5 -44q-44 0 -100 18t-102 47z" />
    <glyph glyph-name="Scedilla" unicode="&#x15e;" horiz-adv-x="630" 
d="M279 441l134 -52q160 -62 160 -196q0 -82 -57.5 -136t-146.5 -66l-19 -32q13 5 33 2q31 -5 52.5 -33.5t21.5 -62.5q0 -42 -35.5 -72t-82.5 -30q-44 0 -78.5 26t-41.5 65h95q1 -12 10.5 -19.5t19.5 -7.5q11 0 20.5 10t9.5 28t-9.5 27.5t-20.5 9.5q-17 0 -23 -10h-95
l50 101q-117 21 -236 94l62 112q141 -89 230 -89q45 0 69 23.5t24 59.5q0 58 -69 83l-106 40q-170 62 -170 206q0 80 64.5 132.5t156.5 52.5q112 0 252 -78l-61 -111q-68 38 -106.5 52.5t-71.5 14.5q-46 0 -66 -22.5t-20 -50.5q0 -50 51 -71z" />
    <glyph glyph-name="scedilla" unicode="&#x15f;" horiz-adv-x="449" 
d="M216 286l88 -34q98 -37 98 -116q0 -53 -37.5 -95t-97.5 -51l-19 -31q13 5 33 2q31 -5 52.5 -33.5t21.5 -62.5q0 -42 -35.5 -72t-82.5 -30q-44 0 -78.5 26t-41.5 65h95q1 -12 10.5 -19.5t19.5 -7.5q11 0 20.5 10t9.5 28t-9.5 27.5t-20.5 9.5q-17 0 -23 -10h-95l51 104
q-72 15 -138 57l51 91q35 -23 75 -39t64 -16q43 0 43 33t-52 53l-61 23q-44 17 -72.5 47.5t-28.5 68.5q0 63 47.5 100.5t102.5 37.5q50 0 87 -12t84 -39l-52 -90q-52 41 -101 41q-13 0 -23 -7t-12 -17q-7 -29 27 -42z" />
    <glyph glyph-name="Scaron" unicode="&#x160;" horiz-adv-x="630" 
d="M468 848l-167 -105l-168 105l78 62l90 -63l88 63zM356 276l-106 40q-170 62 -170 206q0 80 64.5 132.5t156.5 52.5q112 0 252 -78l-61 -111q-68 38 -106.5 52.5t-71.5 14.5q-46 0 -66 -22.5t-20 -50.5q0 -50 51 -71l134 -52q160 -62 160 -196q0 -91 -71.5 -148
t-174.5 -57q-58 0 -137.5 28t-149.5 71l62 112q141 -89 230 -89q45 0 69 23.5t24 59.5q0 58 -69 83z" />
    <glyph glyph-name="scaron" unicode="&#x161;" horiz-adv-x="449" 
d="M402 660l-177 -115l-178 115l88 62l90 -73l88 73zM37 53l51 91q35 -23 75 -39t64 -16q43 0 43 33t-52 53l-61 23q-44 17 -72.5 47.5t-28.5 68.5q0 63 47.5 100.5t102.5 37.5q50 0 87 -12t84 -39l-52 -90q-52 41 -101 41q-13 0 -23 -7t-12 -17q-7 -29 27 -42l88 -34
q98 -37 98 -116q0 -60 -46.5 -104t-116.5 -44q-44 0 -100 18t-102 47z" />
    <glyph glyph-name="Tcedilla" unicode="&#x162;" horiz-adv-x="558" 
d="M326 0l-25 -41q13 5 33 2q31 -5 52.5 -33.5t21.5 -62.5q0 -42 -35.5 -72t-82.5 -30q-44 0 -78.5 26t-41.5 65h95q1 -12 10.5 -19.5t19.5 -7.5q11 0 20.5 10t9.5 28t-9.5 27.5t-20.5 9.5q-17 0 -23 -10h-95l53 108h-24v577h-197v118h539v-118h-198v-577h-24z" />
    <glyph glyph-name="tcedilla" unicode="&#x163;" horiz-adv-x="351" 
d="M235 0l-25 -41q13 5 33 2q31 -5 52.5 -33.5t21.5 -62.5q0 -42 -35.5 -72t-82.5 -30q-44 0 -78.5 26t-41.5 65h95q1 -12 10.5 -19.5t19.5 -7.5q11 0 20.5 10t9.5 28t-9.5 27.5t-20.5 9.5q-17 0 -23 -10h-95l53 108h-40v335h-89l225 322v-217h105v-105h-105v-335z" />
    <glyph glyph-name="Tcaron" unicode="&#x164;" horiz-adv-x="558" 
d="M445 848l-167 -105l-168 105l78 62l90 -63l88 63zM548 577h-198v-577h-144v577h-197v118h539v-118z" />
    <glyph glyph-name="tcaron" unicode="&#x165;" horiz-adv-x="401" 
d="M286 482l20 164q3 24 21 42.5t44 18.5q28 0 43.5 -18.5t15.5 -42.5q0 -16 -15 -37l-97 -127h-32zM240 440h105v-105h-105v-335h-136v335h-89l225 322v-217z" />
    <glyph glyph-name="Tbar" unicode="&#x166;" horiz-adv-x="558" 
d="M350 577v-175h103v-104h-103v-298h-144v298h-93v104h93v175h-197v118h539v-118h-198z" />
    <glyph glyph-name="tbar" unicode="&#x167;" horiz-adv-x="361" 
d="M240 335v-80h105v-104h-105v-151h-136v151h-89v104h89v80h-89l225 322v-217h105v-105h-105z" />
    <glyph glyph-name="Umacron" unicode="&#x16a;" 
d="M551 767h-340v104h340v-104zM689 695v-412q0 -134 -86.5 -214.5t-221.5 -80.5q-134 0 -220.5 80.5t-86.5 214.5v412h144v-412q0 -82 50 -127.5t113 -45.5t113 45.5t50 127.5v412h145z" />
    <glyph glyph-name="umacron" unicode="&#x16b;" horiz-adv-x="561" 
d="M450 575h-340v104h340v-104zM491 0h-136v45q-18 -27 -48.5 -42t-64.5 -15q-20 0 -39 3.5t-44.5 16t-44 33.5t-31.5 60.5t-13 92.5v246h136v-246q0 -99 68 -99q31 0 56 23.5t25 75.5v246h136v-440z" />
    <glyph glyph-name="Uring" unicode="&#x16e;" 
d="M381 895q48 0 78 -29t30 -71t-30 -71t-78 -29q-47 0 -78 29.5t-31 70.5t31 70.5t78 29.5zM381 825q-11 0 -20.5 -8t-9.5 -22t9.5 -22t20.5 -8q10 0 19.5 8t9.5 22t-9.5 22t-19.5 8zM689 695v-412q0 -134 -86.5 -214.5t-221.5 -80.5q-134 0 -220.5 80.5t-86.5 214.5v412
h144v-412q0 -82 50 -127.5t113 -45.5t113 45.5t50 127.5v412h145z" />
    <glyph glyph-name="uring" unicode="&#x16f;" horiz-adv-x="561" 
d="M280 732q48 0 78 -29t30 -71t-30 -71t-78 -29q-47 0 -78 29.5t-31 70.5t31 70.5t78 29.5zM280 662q-11 0 -20.5 -8t-9.5 -22t9.5 -22t20.5 -8q10 0 19.5 8t9.5 22t-9.5 22t-19.5 8zM491 0h-136v45q-18 -27 -48.5 -42t-64.5 -15q-20 0 -39 3.5t-44.5 16t-44 33.5
t-31.5 60.5t-13 92.5v246h136v-246q0 -99 68 -99q31 0 56 23.5t25 75.5v246h136v-440z" />
    <glyph glyph-name="Uhungarumlaut" unicode="&#x170;" 
d="M192 784l62 70q27 30 46.5 43t46.5 13q31 0 51.5 -19t20.5 -47q0 -24 -20 -44t-60 -29l-124 -28zM423 784l62 70q26 29 46 42.5t47 13.5q31 0 51.5 -19t20.5 -47q0 -24 -20 -44t-60 -29l-123 -28zM689 695v-412q0 -134 -86.5 -214.5t-221.5 -80.5q-134 0 -220.5 80.5
t-86.5 214.5v412h144v-412q0 -82 50 -127.5t113 -45.5t113 45.5t50 127.5v412h145z" />
    <glyph glyph-name="uhungarumlaut" unicode="&#x171;" horiz-adv-x="561" 
d="M101 596l62 70q27 30 46.5 43t46.5 13q31 0 51.5 -19t20.5 -47q0 -24 -20 -44t-60 -29l-124 -28zM332 596l62 70q26 29 46 42.5t47 13.5q31 0 51.5 -19t20.5 -47q0 -24 -20 -44t-60 -29l-123 -28zM491 0h-136v45q-18 -27 -48.5 -42t-64.5 -15q-20 0 -39 3.5t-44.5 16
t-44 33.5t-31.5 60.5t-13 92.5v246h136v-246q0 -99 68 -99q31 0 56 23.5t25 75.5v246h136v-440z" />
    <glyph glyph-name="Uogonek" unicode="&#x172;" 
d="M689 695v-412q0 -160 -121 -242q-19 -16 -34.5 -40t-15.5 -43q0 -18 14 -23.5t31 -1.5l42 9l-10 -74l-45 -8q-59 -11 -97.5 13.5t-38.5 64.5q0 30 15 53q-24 -3 -48 -3q-134 0 -220.5 80.5t-86.5 214.5v412h144v-412q0 -82 50 -127.5t113 -45.5t113 45.5t50 127.5v412
h145z" />
    <glyph glyph-name="uogonek" unicode="&#x173;" horiz-adv-x="561" 
d="M523 -103l-10 -74l-45 -8q-59 -11 -97.5 13.5t-38.5 64.5q0 60 72 107h-49v45q-18 -27 -48.5 -42t-64.5 -15q-20 0 -39 3.5t-44.5 16t-44 33.5t-31.5 60.5t-13 92.5v246h136v-246q0 -99 68 -99q31 0 56 23.5t25 75.5v246h136v-440q-20 -14 -37.5 -40.5t-17.5 -46.5
q0 -18 14 -23.5t31 -1.5z" />
    <glyph glyph-name="Wcircumflex" unicode="&#x174;" horiz-adv-x="1069" 
d="M451 743l-84 62l167 105l168 -105l-83 -62l-85 63zM719 -20l-184 341l-184 -341l-341 715h154l201 -447l103 195l-136 252h134l68 -128l68 128h134l-136 -252l104 -195l201 447h154z" />
    <glyph glyph-name="wcircumflex" unicode="&#x175;" horiz-adv-x="773" 
d="M289 545l-79 62l177 115l178 -115l-78 -62l-100 73zM506 -20l-119 217l-120 -217l-266 460h142l129 -238l60 95l-78 143h133l115 -237l128 237h142z" />
    <glyph glyph-name="Ycircumflex" unicode="&#x176;" horiz-adv-x="646" 
d="M491 805l-83 -62l-85 63l-83 -63l-84 62l167 105zM395 312v-312h-144v312l-243 383h156l159 -263l159 263h157z" />
    <glyph glyph-name="ycircumflex" unicode="&#x177;" horiz-adv-x="524" 
d="M440 607l-78 -62l-100 73l-98 -73l-79 62l177 115zM218 -240h-138l118 275l-193 405h148l109 -257l109 257h148z" />
    <glyph glyph-name="Ydieresis" unicode="&#x178;" horiz-adv-x="646" 
d="M217 897q35 0 56.5 -23.5t21.5 -53.5q0 -29 -21.5 -52t-56.5 -23q-32 0 -55 23.5t-23 51.5q0 29 22.5 53t55.5 24zM430 897q35 0 56.5 -23.5t21.5 -53.5q0 -29 -21.5 -52t-56.5 -23q-32 0 -55 23.5t-23 51.5q0 29 22.5 53t55.5 24zM395 312v-312h-144v312l-243 383h156
l159 -263l159 263h157z" />
    <glyph glyph-name="Zacute" unicode="&#x179;" horiz-adv-x="613" 
d="M240 785l62 69q26 29 46 42.5t47 13.5q31 0 51.5 -19t20.5 -47q0 -24 -20 -44t-60 -29l-123 -28zM245 118h341v-118h-561l344 577h-329v118h548z" />
    <glyph glyph-name="zacute" unicode="&#x17a;" horiz-adv-x="472" 
d="M179 576l72 90q44 56 83 56q31 0 51.5 -19t20.5 -47q0 -48 -70 -73l-133 -48zM235 104h202v-104h-412l216 335h-184v105h391z" />
    <glyph glyph-name="Zdotaccent" unicode="&#x17b;" horiz-adv-x="613" 
d="M314 896q35 0 56.5 -23.5t21.5 -53.5q0 -29 -21.5 -52t-56.5 -23q-32 0 -54.5 23.5t-22.5 51.5q0 29 22.5 53t54.5 24zM245 118h341v-118h-561l344 577h-329v118h548z" />
    <glyph glyph-name="zdotaccent" unicode="&#x17c;" horiz-adv-x="472" 
d="M253 705q35 0 56.5 -23.5t21.5 -53.5t-21.5 -52.5t-56.5 -22.5q-32 0 -54.5 23t-22.5 52t22.5 53t54.5 24zM235 104h202v-104h-412l216 335h-184v105h391z" />
    <glyph glyph-name="Zcaron" unicode="&#x17d;" horiz-adv-x="613" 
d="M481 848l-167 -105l-168 105l78 62l90 -63l88 63zM245 118h341v-118h-561l344 577h-329v118h548z" />
    <glyph glyph-name="zcaron" unicode="&#x17e;" horiz-adv-x="472" 
d="M430 660l-177 -115l-178 115l88 62l90 -73l88 73zM235 104h202v-104h-412l216 335h-184v105h391z" />
    <glyph glyph-name="florin" unicode="&#x192;" horiz-adv-x="394" 
d="M391 722l-8 -110q-54 -1 -92.5 -48t-48.5 -124h121v-105h-132l-43 -410h-136l43 410h-88l55 105h44l1 5q13 129 88.5 203t195.5 74z" />
    <glyph glyph-name="Acaron" unicode="&#x1cd;" horiz-adv-x="707" 
d="M355 743l-168 105l78 62l90 -63l88 63l79 -62zM479 151h-250l-66 -151h-152l344 715l341 -715h-152zM430 265l-75 175l-76 -175h151z" />
    <glyph glyph-name="acaron" unicode="&#x1ce;" horiz-adv-x="540" 
d="M443 660l-177 -115l-178 115l88 62l90 -73l88 73zM154 315l-66 71q67 66 178 66q78 0 139 -43.5t61 -114.5v-181q0 -63 10 -113h-122q-7 28 -7 60q-17 -36 -52 -54t-72 -18q-75 0 -123.5 42.5t-48.5 103.5q0 119 165 136q71 8 114 18v4q0 29 -18 45t-46 16
q-66 0 -112 -38zM330 171v27q-23 -4 -94 -14q-52 -7 -52 -50q0 -18 14 -30t43 -12q39 0 64 19.5t25 59.5z" />
    <glyph glyph-name="Icaron" unicode="&#x1cf;" horiz-adv-x="303" 
d="M319 848l-167 -105l-168 105l78 62l90 -63l88 63zM226 0h-148v695h148v-695z" />
    <glyph glyph-name="icaron" unicode="&#x1d0;" horiz-adv-x="280" 
d="M317 660l-177 -115l-178 115l88 62l90 -73l88 73zM208 0h-136v440h136v-440z" />
    <glyph glyph-name="Ocaron" unicode="&#x1d1;" horiz-adv-x="804" 
d="M569 848l-167 -105l-168 105l78 62l90 -63l88 63zM402 707q153 0 258.5 -103t105.5 -256q0 -149 -102.5 -254.5t-261.5 -105.5q-157 0 -260.5 103.5t-103.5 256.5q0 154 100.5 256.5t263.5 102.5zM402 585q-89 0 -152.5 -67t-63.5 -170t62.5 -170.5t153.5 -67.5
q86 0 151 68.5t65 169.5q0 95 -65 166t-151 71z" />
    <glyph glyph-name="ocaron" unicode="&#x1d2;" horiz-adv-x="582" 
d="M467 660l-177 -115l-178 115l88 62l90 -73l88 73zM290 452q112 0 182.5 -68t70.5 -164q0 -97 -70.5 -164.5t-182.5 -67.5t-182 67.5t-70 164.5q0 96 70 164t182 68zM290 342q-44 0 -78.5 -36t-34.5 -86t34.5 -85.5t78.5 -35.5t79 35.5t35 85.5t-35 86t-79 36z" />
    <glyph glyph-name="Ucaron" unicode="&#x1d3;" 
d="M548 848l-167 -105l-168 105l78 62l90 -63l88 63zM689 695v-412q0 -134 -86.5 -214.5t-221.5 -80.5q-134 0 -220.5 80.5t-86.5 214.5v412h144v-412q0 -82 50 -127.5t113 -45.5t113 45.5t50 127.5v412h145z" />
    <glyph glyph-name="ucaron" unicode="&#x1d4;" horiz-adv-x="561" 
d="M457 660l-177 -115l-178 115l88 62l90 -73l88 73zM491 0h-136v45q-18 -27 -48.5 -42t-64.5 -15q-20 0 -39 3.5t-44.5 16t-44 33.5t-31.5 60.5t-13 92.5v246h136v-246q0 -99 68 -99q31 0 56 23.5t25 75.5v246h136v-440z" />
    <glyph glyph-name="Udieresismacron" unicode="&#x1d5;" 
d="M551 767h-340v104h340v-104zM296 707q29 0 50 -22t21 -51t-20.5 -50t-50.5 -21q-27 0 -49 21.5t-22 49.5t22 50.5t49 22.5zM456 707q29 0 50 -22t21 -51t-20.5 -50t-50.5 -21q-27 0 -49 21.5t-22 49.5t22 50.5t49 22.5zM689 695v-412q0 -134 -86.5 -214.5t-221.5 -80.5
q-134 0 -220.5 80.5t-86.5 214.5v412h144v-412q0 -82 50 -127.5t113 -45.5t113 45.5t50 127.5v412h145z" />
    <glyph glyph-name="udieresismacron" unicode="&#x1d6;" horiz-adv-x="551" 
d="M450 725h-340v104h340v-104zM174 655q35 0 57 -23.5t22 -53.5q0 -29 -22 -52t-57 -23q-32 0 -55.5 23t-23.5 52t23.5 53t55.5 24zM387 655q35 0 57 -23.5t22 -53.5q0 -29 -22 -52t-57 -23q-32 0 -55.5 23t-23.5 52t23.5 53t55.5 24zM491 0h-136v45q-18 -27 -48.5 -42
t-64.5 -15q-20 0 -39 3.5t-44.5 16t-44 33.5t-31.5 60.5t-13 92.5v246h136v-246q0 -99 68 -99q31 0 56 23.5t25 75.5v246h136v-440z" />
    <glyph glyph-name="Udieresisacute" unicode="&#x1d7;" 
d="M338 785l62 69q26 29 46 42.5t47 13.5q31 0 51.5 -19t20.5 -47q0 -24 -20 -44t-60 -29l-123 -28zM296 707q29 0 50 -22t21 -51t-20.5 -50t-50.5 -21q-27 0 -49 21.5t-22 49.5t22 50.5t49 22.5zM456 707q29 0 50 -22t21 -51t-20.5 -50t-50.5 -21q-27 0 -49 21.5t-22 49.5
t22 50.5t49 22.5zM689 695v-412q0 -134 -86.5 -214.5t-221.5 -80.5q-134 0 -220.5 80.5t-86.5 214.5v412h144v-412q0 -82 50 -127.5t113 -45.5t113 45.5t50 127.5v412h145z" />
    <glyph glyph-name="udieresisacute" unicode="&#x1d8;" horiz-adv-x="551" 
d="M214 726l72 90q44 56 83 56q31 0 51.5 -19t20.5 -47q0 -48 -70 -73l-133 -48zM174 655q35 0 57 -23.5t22 -53.5q0 -29 -22 -52t-57 -23q-32 0 -55.5 23t-23.5 52t23.5 53t55.5 24zM387 655q35 0 57 -23.5t22 -53.5q0 -29 -22 -52t-57 -23q-32 0 -55.5 23t-23.5 52
t23.5 53t55.5 24zM491 0h-136v45q-18 -27 -48.5 -42t-64.5 -15q-20 0 -39 3.5t-44.5 16t-44 33.5t-31.5 60.5t-13 92.5v246h136v-246q0 -99 68 -99q31 0 56 23.5t25 75.5v246h136v-440z" />
    <glyph glyph-name="Udieresiscaron" unicode="&#x1d9;" 
d="M549 848l-167 -105l-168 105l78 62l90 -63l88 63zM296 707q29 0 50 -22t21 -51t-20.5 -50t-50.5 -21q-27 0 -49 21.5t-22 49.5t22 50.5t49 22.5zM456 707q29 0 50 -22t21 -51t-20.5 -50t-50.5 -21q-27 0 -49 21.5t-22 49.5t22 50.5t49 22.5zM689 695v-412
q0 -134 -86.5 -214.5t-221.5 -80.5q-134 0 -220.5 80.5t-86.5 214.5v412h144v-412q0 -82 50 -127.5t113 -45.5t113 45.5t50 127.5v412h145z" />
    <glyph glyph-name="udieresiscaron" unicode="&#x1da;" horiz-adv-x="551" 
d="M452 810l-177 -115l-178 115l88 62l90 -73l88 73zM174 655q35 0 57 -23.5t22 -53.5q0 -29 -22 -52t-57 -23q-32 0 -55.5 23t-23.5 52t23.5 53t55.5 24zM387 655q35 0 57 -23.5t22 -53.5q0 -29 -22 -52t-57 -23q-32 0 -55.5 23t-23.5 52t23.5 53t55.5 24zM491 0h-136v45
q-18 -27 -48.5 -42t-64.5 -15q-20 0 -39 3.5t-44.5 16t-44 33.5t-31.5 60.5t-13 92.5v246h136v-246q0 -99 68 -99q31 0 56 23.5t25 75.5v246h136v-440z" />
    <glyph glyph-name="Udieresisgrave" unicode="&#x1db;" 
d="M412 743l-124 28q-40 9 -60 29t-20 44q0 28 20.5 47t51.5 19q27 0 47 -13.5t46 -43.5l62 -69zM296 707q29 0 50 -22t21 -51t-20.5 -50t-50.5 -21q-27 0 -49 21.5t-22 49.5t22 50.5t49 22.5zM456 707q29 0 50 -22t21 -51t-20.5 -50t-50.5 -21q-27 0 -49 21.5t-22 49.5
t22 50.5t49 22.5zM689 695v-412q0 -134 -86.5 -214.5t-221.5 -80.5q-134 0 -220.5 80.5t-86.5 214.5v412h144v-412q0 -82 50 -127.5t113 -45.5t113 45.5t50 127.5v412h145z" />
    <glyph glyph-name="udieresisgrave" unicode="&#x1dc;" horiz-adv-x="551" 
d="M321 685l-134 48q-70 25 -70 73q0 28 20.5 47t51.5 19q39 0 83 -56l72 -90zM174 655q35 0 57 -23.5t22 -53.5q0 -29 -22 -52t-57 -23q-32 0 -55.5 23t-23.5 52t23.5 53t55.5 24zM387 655q35 0 57 -23.5t22 -53.5q0 -29 -22 -52t-57 -23q-32 0 -55.5 23t-23.5 52t23.5 53
t55.5 24zM491 0h-136v45q-18 -27 -48.5 -42t-64.5 -15q-20 0 -39 3.5t-44.5 16t-44 33.5t-31.5 60.5t-13 92.5v246h136v-246q0 -99 68 -99q31 0 56 23.5t25 75.5v246h136v-440z" />
    <glyph glyph-name="Scommaaccent" unicode="&#x218;" horiz-adv-x="630" 
d="M356 276l-106 40q-170 62 -170 206q0 80 64.5 132.5t156.5 52.5q112 0 252 -78l-61 -111q-68 38 -106.5 52.5t-71.5 14.5q-46 0 -66 -22.5t-20 -50.5q0 -50 51 -71l134 -52q160 -62 160 -196q0 -91 -71.5 -148t-174.5 -57q-58 0 -137.5 28t-149.5 71l62 112
q141 -89 230 -89q45 0 69 23.5t24 59.5q0 58 -69 83zM245 -335v196q0 28 25 52.5t57 24.5q34 0 53.5 -23t19.5 -54q0 -16 -11 -35l-100 -161h-44z" />
    <glyph glyph-name="scommaaccent" unicode="&#x219;" horiz-adv-x="449" 
d="M37 53l51 91q35 -23 75 -39t64 -16q43 0 43 33t-52 53l-61 23q-44 17 -72.5 47.5t-28.5 68.5q0 63 47.5 100.5t102.5 37.5q50 0 87 -12t84 -39l-52 -90q-52 41 -101 41q-13 0 -23 -7t-12 -17q-7 -29 27 -42l88 -34q98 -37 98 -116q0 -60 -46.5 -104t-116.5 -44
q-44 0 -100 18t-102 47zM143 -335v196q0 28 25 52.5t57 24.5q34 0 53.5 -23t19.5 -54q0 -16 -11 -35l-100 -161h-44z" />
    <glyph glyph-name="uni021A" unicode="&#x21a;" horiz-adv-x="558" 
d="M548 577h-198v-577h-144v577h-197v118h539v-118zM196 -335v196q0 28 25 52.5t57 24.5q34 0 53.5 -23t19.5 -54q0 -16 -11 -35l-100 -161h-44z" />
    <glyph glyph-name="uni021B" unicode="&#x21b;" horiz-adv-x="351" 
d="M235 440h105v-105h-105v-335h-136v335h-89l225 322v-217zM105 -335v196q0 28 25 52.5t57 24.5q34 0 53.5 -23t19.5 -54q0 -16 -11 -35l-100 -161h-44z" />
    <glyph glyph-name="dotlessj" unicode="&#x237;" horiz-adv-x="286" 
d="M215 440v-409q0 -60 -24 -129.5t-72 -115.5l-102 61q28 33 45 85.5t17 98.5v409h136z" />
    <glyph glyph-name="circumflex" unicode="&#x2c6;" horiz-adv-x="511" 
d="M434 607l-78 -62l-100 73l-98 -73l-79 62l177 115z" />
    <glyph glyph-name="caron" unicode="&#x2c7;" horiz-adv-x="491" 
d="M423 660l-177 -115l-178 115l88 62l90 -73l88 73z" />
    <glyph glyph-name="breve" unicode="&#x2d8;" horiz-adv-x="493" 
d="M310 710h100q2 -62 -41 -108.5t-121 -46.5q-79 0 -122 46.5t-42 108.5h106q-2 -35 13 -55t45 -20t46.5 20t15.5 55z" />
    <glyph glyph-name="dotaccent" unicode="&#x2d9;" horiz-adv-x="405" 
d="M202 705q35 0 56.5 -23.5t21.5 -53.5t-21.5 -52.5t-56.5 -22.5q-32 0 -54.5 23t-22.5 52t22.5 53t54.5 24z" />
    <glyph glyph-name="ring" unicode="&#x2da;" horiz-adv-x="372" 
d="M187 732q48 0 78 -29t30 -71t-30 -71t-78 -29q-47 0 -78 29.5t-31 70.5t31 70.5t78 29.5zM187 662q-11 0 -20.5 -8t-9.5 -22t9.5 -22t20.5 -8q10 0 19.5 8t9.5 22t-9.5 22t-19.5 8z" />
    <glyph glyph-name="ogonek" unicode="&#x2db;" horiz-adv-x="346" 
d="M150 0h87q-20 -14 -37.5 -40.5t-17.5 -46.5q0 -18 14 -23.5t31 -1.5l42 9l-10 -74l-45 -8q-59 -11 -97.5 13.5t-38.5 64.5q0 60 72 107z" />
    <glyph glyph-name="tilde" unicode="&#x2dc;" horiz-adv-x="527" 
d="M381 705l68 -68q-21 -37 -57 -59.5t-74 -22.5q-31 0 -61 24t-51 24q-38 0 -61 -51l-67 67q21 37 57 59t74 22q31 0 61 -23.5t51 -23.5q42 0 60 52z" />
    <glyph glyph-name="hungarumlaut" unicode="&#x2dd;" horiz-adv-x="613" 
d="M78 596l62 70q27 30 46.5 43t46.5 13q31 0 51.5 -19t20.5 -47q0 -24 -20 -44t-60 -29l-124 -28zM309 596l62 70q26 29 46 42.5t47 13.5q31 0 51.5 -19t20.5 -47q0 -24 -20 -44t-60 -29l-123 -28z" />
    <glyph glyph-name="commaaccentcomb" unicode="&#x326;" horiz-adv-x="0" 
d="M316 -335v196q0 28 25 52.5t57 24.5q34 0 53.5 -23t19.5 -54q0 -16 -11 -35l-100 -161h-44z" />
    <glyph glyph-name="Delta" unicode="&#x394;" horiz-adv-x="719" 
d="M708 0h-697l347 715zM214 118h290l-146 322z" />
    <glyph glyph-name="Omega" unicode="&#x3a9;" horiz-adv-x="804" 
d="M43 114h97q-102 104 -102 234q0 92 44 173.5t129 133.5t191 52q149 0 256.5 -108.5t107.5 -250.5q0 -62 -28.5 -124t-76.5 -110h98v-114h-263v114q57 32 89.5 91t32.5 113q0 109 -64.5 188t-151.5 79q-89 0 -152.5 -75t-63.5 -192q0 -54 32.5 -113t87.5 -91v-114h-263
v114z" />
    <glyph glyph-name="mu" unicode="&#x3bc;" horiz-adv-x="563" 
d="M493 440v-246q0 -206 -172 -206q-34 0 -64.5 15t-48.5 42v-285h-136v680h136v-246q0 -52 25 -75.5t56 -23.5q68 0 68 99v246h136z" />
    <glyph glyph-name="pi" unicode="&#x3c0;" horiz-adv-x="693" 
d="M654 339h-102v-339h-136v339h-171v-339h-136v339h-102v101h647v-101z" />
    <glyph glyph-name="Wgrave" unicode="&#x1e80;" horiz-adv-x="1069" 
d="M584 743l-124 28q-40 9 -60 29t-20 44q0 28 20.5 47t51.5 19q27 0 47 -13.5t46 -43.5l62 -69zM719 -20l-184 341l-184 -341l-341 715h154l201 -447l103 195l-136 252h134l68 -128l68 128h134l-136 -252l104 -195l201 447h154z" />
    <glyph glyph-name="wgrave" unicode="&#x1e81;" horiz-adv-x="773" 
d="M437 535l-134 48q-70 25 -70 73q0 28 20.5 47t51.5 19q39 0 83 -56l72 -90zM506 -20l-119 217l-120 -217l-266 460h142l129 -238l60 95l-78 143h133l115 -237l128 237h142z" />
    <glyph glyph-name="Wacute" unicode="&#x1e82;" horiz-adv-x="1069" 
d="M484 743l-24 42l62 69q26 29 46 42.5t47 13.5q31 0 51.5 -19t20.5 -47q0 -24 -20 -44t-60 -29zM719 -20l-184 341l-184 -341l-341 715h154l201 -447l103 195l-136 252h134l68 -128l68 128h134l-136 -252l104 -195l201 447h154z" />
    <glyph glyph-name="wacute" unicode="&#x1e83;" horiz-adv-x="773" 
d="M337 535l-24 41l72 90q44 56 83 56q31 0 51.5 -19t20.5 -47q0 -48 -70 -73zM506 -20l-119 217l-120 -217l-266 460h142l129 -238l60 95l-78 143h133l115 -237l128 237h142z" />
    <glyph glyph-name="Wdieresis" unicode="&#x1e84;" horiz-adv-x="1069" 
d="M428 745q-32 0 -55 23.5t-23 51.5q0 29 22.5 53t55.5 24q35 0 56.5 -23.5t21.5 -53.5q0 -29 -21.5 -52t-56.5 -23zM641 745q-32 0 -55 23.5t-23 51.5q0 29 22.5 53t55.5 24q35 0 56.5 -23.5t21.5 -53.5q0 -29 -21.5 -52t-56.5 -23zM719 -20l-184 341l-184 -341l-341 715
h154l201 -447l103 195l-136 252h134l68 -128l68 128h134l-136 -252l104 -195l201 447h154z" />
    <glyph glyph-name="wdieresis" unicode="&#x1e85;" horiz-adv-x="773" 
d="M281 553q-32 0 -55.5 23t-23.5 52t23.5 53t55.5 24q35 0 57 -23.5t22 -53.5q0 -29 -22 -52t-57 -23zM494 553q-32 0 -55.5 23t-23.5 52t23.5 53t55.5 24q35 0 57 -23.5t22 -53.5q0 -29 -22 -52t-57 -23zM506 -20l-119 217l-120 -217l-266 460h142l129 -238l60 95l-78 143
h133l115 -237l128 237h142z" />
    <glyph glyph-name="Ygrave" unicode="&#x1ef2;" horiz-adv-x="646" 
d="M373 743l-124 28q-40 9 -60 29t-20 44q0 28 20.5 47t51.5 19q27 0 47 -13.5t46 -43.5l62 -69zM395 312v-312h-144v312l-243 383h156l159 -263l159 263h157z" />
    <glyph glyph-name="ygrave" unicode="&#x1ef3;" horiz-adv-x="524" 
d="M312 535l-134 48q-70 25 -70 73q0 28 20.5 47t51.5 19q39 0 83 -56l72 -90zM218 -240h-138l118 275l-193 405h148l109 -257l109 257h148z" />
    <glyph glyph-name="endash" unicode="&#x2013;" horiz-adv-x="615" 
d="M549 204h-483v114h483v-114z" />
    <glyph glyph-name="emdash" unicode="&#x2014;" horiz-adv-x="994" 
d="M928 204h-862v114h862v-114z" />
    <glyph glyph-name="quoteleft" unicode="&#x2018;" horiz-adv-x="277" 
d="M217 695v-196q0 -29 -22.5 -53t-55.5 -24q-35 0 -56.5 23.5t-21.5 53.5q0 14 12 35l91 161h53z" />
    <glyph glyph-name="quoteright" unicode="&#x2019;" horiz-adv-x="277" 
d="M60 434v199q0 27 23 50.5t55 23.5q34 0 53 -22.5t19 -51.5q0 -14 -19 -45l-92 -154h-39z" />
    <glyph glyph-name="quotesinglbase" unicode="&#x201a;" horiz-adv-x="277" 
d="M61 -132v196q0 29 23 53t55 24q35 0 56.5 -23.5t21.5 -53.5q0 -16 -11 -35l-91 -161h-54z" />
    <glyph glyph-name="quotedblleft" unicode="&#x201c;" horiz-adv-x="466" 
d="M217 695v-196q0 -29 -22.5 -53t-55.5 -24q-35 0 -56.5 23.5t-21.5 53.5q0 14 12 35l91 161h53zM406 695v-196q0 -29 -22.5 -53t-54.5 -24q-35 0 -56.5 23.5t-21.5 53.5q0 16 11 35l91 161h53z" />
    <glyph glyph-name="quotedblright" unicode="&#x201d;" horiz-adv-x="466" 
d="M61 434v196q0 29 23 53t55 24q35 0 56.5 -23.5t21.5 -53.5q0 -16 -11 -35l-91 -161h-54zM251 434v196q0 29 22.5 53t55.5 24q35 0 56 -23.5t21 -53.5q0 -16 -11 -35l-91 -161h-53z" />
    <glyph glyph-name="quotedblbase" unicode="&#x201e;" horiz-adv-x="466" 
d="M61 -132v196q0 29 23 53t55 24q35 0 56.5 -23.5t21.5 -53.5q0 -16 -11 -35l-91 -161h-54zM251 -132v196q0 29 22.5 53t55.5 24q35 0 56 -23.5t21 -53.5q0 -16 -11 -35l-91 -161h-53z" />
    <glyph glyph-name="dagger" unicode="&#x2020;" horiz-adv-x="625" 
d="M537 380h-152v-528h-145v528h-152v118h152v197h145v-197h152v-118z" />
    <glyph glyph-name="daggerdbl" unicode="&#x2021;" horiz-adv-x="625" 
d="M385 380v-212h152v-119h-152v-197h-145v197h-152v119h152v212h-152v118h152v197h145v-197h152v-118h-152z" />
    <glyph glyph-name="bullet" unicode="&#x2022;" horiz-adv-x="430" 
d="M215 431q58 0 97.5 -39.5t39.5 -92.5q0 -54 -40 -94t-97 -40q-58 0 -97.5 40t-39.5 94q-1 53 38.5 92.5t98.5 39.5z" />
    <glyph glyph-name="ellipsis" unicode="&#x2026;" horiz-adv-x="801" 
d="M132 140q35 0 56.5 -23t21.5 -53t-21.5 -53t-56.5 -23q-32 0 -54.5 23.5t-22.5 52.5t22.5 52.5t54.5 23.5zM400 140q35 0 56.5 -23t21.5 -53t-21.5 -53t-56.5 -23q-32 0 -54.5 23.5t-22.5 52.5t22.5 52.5t54.5 23.5zM669 140q35 0 56 -23t21 -53t-21 -53t-56 -23
q-33 0 -55.5 23.5t-22.5 52.5t22.5 52.5t55.5 23.5z" />
    <glyph glyph-name="perthousand" unicode="&#x2030;" horiz-adv-x="1145" 
d="M194 707q67 0 114 -45.5t47 -108.5q0 -62 -47.5 -107t-113.5 -45q-65 0 -112.5 45t-47.5 107q0 63 47 108.5t113 45.5zM244 0h-139l426 695h139zM194 621q-24 0 -43 -19t-19 -49q0 -28 19 -47t43 -19q23 0 43 19t20 47q0 29 -20 48.5t-43 19.5zM581 294q67 0 114 -46
t47 -108q0 -60 -47.5 -106t-113.5 -46t-113.5 45.5t-47.5 106.5q0 62 47 108t114 46zM950 294q67 0 114 -46t47 -108q0 -60 -47.5 -106t-113.5 -46q-65 0 -113 45.5t-48 106.5q0 62 47.5 108t113.5 46zM581 208q-24 0 -43 -20t-19 -48q0 -29 18.5 -47.5t43.5 -18.5
q24 0 43 18.5t19 47.5q0 28 -19.5 48t-42.5 20zM950 208q-24 0 -43 -20t-19 -48q0 -29 19 -47.5t43 -18.5t43 18.5t19 47.5q0 28 -19.5 48t-42.5 20z" />
    <glyph glyph-name="guilsinglleft" unicode="&#x2039;" horiz-adv-x="357" 
d="M288 365l-122 -141l123 -136l-85 -66l-163 202l163 207z" />
    <glyph glyph-name="guilsinglright" unicode="&#x203a;" horiz-adv-x="357" 
d="M316 224l-163 -202l-85 66l123 136l-122 141l85 66z" />
    <glyph glyph-name="fraction" unicode="&#x2044;" horiz-adv-x="557" 
d="M136 0h-132l418 695h131z" />
    <glyph glyph-name="foursuperior" unicode="&#x2074;" horiz-adv-x="360" 
d="M268 479h37v-69h-37v-47h-88v48h-175l263 304v-236zM150 477h44v52z" />
    <glyph glyph-name="Euro" unicode="&#x20ac;" horiz-adv-x="818" 
d="M654 204l115 -89q-122 -127 -285 -127q-109 0 -203.5 63.5t-137.5 164.5h-114v104h88q-1 9 -1 28v14h-87v104h109q39 105 133 173t213 68q89 0 159 -35t111 -90l-110 -88q-40 45 -77 68t-83 23q-53 0 -104.5 -33t-83.5 -86h205l-21 -104h-216v-14q0 -19 1 -28h207
l-19 -104h-153q30 -49 78.5 -77.5t105.5 -28.5q46 0 91 26.5t79 67.5z" />
    <glyph glyph-name="trademark" unicode="&#x2122;" horiz-adv-x="744" 
d="M709 358h-100v144l-81 -88l-80 88v-144h-99v358l180 -186l180 185v-357zM314 616h-87v-258h-103v258h-88v79h278v-79z" />
    <glyph glyph-name="partialdiff" unicode="&#x2202;" horiz-adv-x="547" 
d="M215 729h141q79 -121 124 -273t29 -264q-13 -89 -77 -146.5t-162 -57.5q-105 0 -170.5 67.5t-65.5 164.5q0 95 65.5 163.5t163.5 68.5q53 0 85 -12q-37 136 -133 289zM270 342q-40 0 -71 -32t-31 -90q0 -51 30 -86t72 -35t72.5 35t30.5 86q0 58 -31 90t-72 32z" />
    <glyph glyph-name="emptyset" unicode="&#x2205;" horiz-adv-x="689" 
d="M651 514l-56 -56q53 -75 53 -171q0 -124 -85 -212.5t-218 -88.5q-97 0 -172 50l-57 -57l-78 79l55 55q-52 77 -52 174q0 128 84 213.5t220 85.5q94 0 171 -50l57 57zM181 201l254 254q-42 29 -90 29q-74 0 -127 -56t-53 -141q0 -44 16 -86zM507 370l-255 -255
q43 -27 93 -27q71 0 125.5 57t54.5 142q0 40 -18 83z" />
    <glyph glyph-name="product" unicode="&#x220f;" horiz-adv-x="757" 
d="M747 601h-75v-671h-144v671h-299v-671h-144v671h-75v124h737v-124z" />
    <glyph glyph-name="summation" unicode="&#x2211;" horiz-adv-x="777" 
d="M672 607h-379l193 -294l-223 -295h441v-118h-691l311 413l-270 412h618v-118z" />
    <glyph glyph-name="minus" unicode="&#x2212;" horiz-adv-x="602" 
d="M536 204h-470v114h470v-114z" />
    <glyph glyph-name="radical" unicode="&#x221a;" horiz-adv-x="743" 
d="M333 -19l-196 291h-130v118h208l118 -171l421 700h154z" />
    <glyph glyph-name="infinity" unicode="&#x221e;" horiz-adv-x="827" 
d="M583 592q81 0 143.5 -58.5t62.5 -146.5q0 -89 -62.5 -148t-143.5 -60q-54 1 -100.5 28.5t-73.5 73.5q-28 -45 -74.5 -72.5t-100.5 -27.5q-81 0 -143.5 58.5t-62.5 146.5q0 90 62.5 148.5t143.5 59.5q54 -1 101 -28.5t74 -73.5q29 45 75 72.5t99 27.5zM234 320
q46 0 103 66q-57 68 -103 68q-29 0 -50.5 -22t-21.5 -46t21.5 -45t50.5 -21zM583 319q29 0 50.5 22t21.5 46t-21.5 45t-50.5 21q-46 0 -103 -66q57 -68 103 -68z" />
    <glyph glyph-name="integral" unicode="&#x222b;" horiz-adv-x="502" 
d="M198 440v5q14 129 89 203t195 74l-7 -110q-55 -1 -94.5 -50t-47.5 -130l-14 -132l-15 -140v-5q-14 -129 -89 -203t-195 -74l7 110q55 1 94.5 50t47.5 130l14 132z" />
    <glyph glyph-name="approxequal" unicode="&#x2248;" horiz-adv-x="714" 
d="M538 491l106 -75q-30 -48 -81.5 -74t-109.5 -26q-40 0 -95.5 29.5t-81.5 29.5q-60 0 -102 -64l-104 73q30 50 82 80.5t109 30.5q40 0 96 -30.5t82 -30.5q69 0 99 57zM538 271l106 -75q-30 -48 -81.5 -74t-109.5 -26q-40 0 -95.5 29.5t-81.5 29.5q-60 0 -102 -64l-104 73
q30 50 82 80.5t109 30.5q40 0 96 -30.5t82 -30.5q69 0 99 57z" />
    <glyph glyph-name="notequal" unicode="&#x2260;" horiz-adv-x="610" 
d="M398 303l-44 -83h187v-115h-248l-45 -85h-148l45 85h-74v115h135l44 83h-179v114h239l44 83h148l-44 -83h83v-114h-143z" />
    <glyph glyph-name="lessequal" unicode="&#x2264;" horiz-adv-x="583" 
d="M526 474l-222 -106l222 -108v-120l-459 228l459 229v-123zM526 0h-470v115h470v-115z" />
    <glyph glyph-name="greaterequal" unicode="&#x2265;" horiz-adv-x="585" 
d="M515 368l-458 -228v120l222 108l-222 106v123zM527 0h-470v114h470v-114z" />
    <glyph glyph-name="lozenge" unicode="&#x25ca;" horiz-adv-x="709" 
d="M696 322l-341 -343l-342 342l341 342zM175 321l179 -179l180 180l-180 179z" />
    <glyph glyph-name="W.ss01" horiz-adv-x="1069" 
d="M719 -20l-184 341l-184 -341l-341 715h154l201 -447l170 319l169 -319l201 447h154z" />
    <glyph glyph-name="Wacute.ss01" horiz-adv-x="1069" 
d="M484 743l-24 42l62 69q26 29 46 42.5t47 13.5q31 0 51.5 -19t20.5 -47q0 -24 -20 -44t-60 -29zM719 -20l-184 341l-184 -341l-341 715h154l201 -447l170 319l169 -319l201 447h154z" />
    <glyph glyph-name="Wcircumflex.ss01" horiz-adv-x="1069" 
d="M451 743l-84 62l167 105l168 -105l-83 -62l-85 63zM719 -20l-184 341l-184 -341l-341 715h154l201 -447l170 319l169 -319l201 447h154z" />
    <glyph glyph-name="Wdieresis.ss01" horiz-adv-x="1069" 
d="M428 745q-32 0 -55 23.5t-23 51.5q0 29 22.5 53t55.5 24q35 0 56.5 -23.5t21.5 -53.5q0 -29 -21.5 -52t-56.5 -23zM641 745q-32 0 -55 23.5t-23 51.5q0 29 22.5 53t55.5 24q35 0 56.5 -23.5t21.5 -53.5q0 -29 -21.5 -52t-56.5 -23zM719 -20l-184 341l-184 -341l-341 715
h154l201 -447l170 319l169 -319l201 447h154z" />
    <glyph glyph-name="Wgrave.ss01" horiz-adv-x="1069" 
d="M584 743l-124 28q-40 9 -60 29t-20 44q0 28 20.5 47t51.5 19q27 0 47 -13.5t46 -43.5l62 -69zM719 -20l-184 341l-184 -341l-341 715h154l201 -447l170 319l169 -319l201 447h154z" />
    <glyph glyph-name="w.ss01" horiz-adv-x="773" 
d="M506 -20l-119 217l-120 -217l-266 460h142l129 -238l130 207l100 -206l128 237h142z" />
    <glyph glyph-name="wacute.ss01" horiz-adv-x="773" 
d="M337 535l-24 41l72 90q44 56 83 56q31 0 51.5 -19t20.5 -47q0 -48 -70 -73zM506 -20l-119 217l-120 -217l-266 460h142l129 -238l130 207l100 -206l128 237h142z" />
    <glyph glyph-name="wcircumflex.ss01" horiz-adv-x="773" 
d="M289 545l-79 62l177 115l178 -115l-78 -62l-100 73zM506 -20l-119 217l-120 -217l-266 460h142l129 -238l130 207l100 -206l128 237h142z" />
    <glyph glyph-name="wdieresis.ss01" horiz-adv-x="773" 
d="M281 553q-32 0 -55.5 23t-23.5 52t23.5 53t55.5 24q35 0 57 -23.5t22 -53.5q0 -29 -22 -52t-57 -23zM494 553q-32 0 -55.5 23t-23.5 52t23.5 53t55.5 24q35 0 57 -23.5t22 -53.5q0 -29 -22 -52t-57 -23zM506 -20l-119 217l-120 -217l-266 460h142l129 -238l130 207
l100 -206l128 237h142z" />
    <glyph glyph-name="wgrave.ss01" horiz-adv-x="773" 
d="M437 535l-134 48q-70 25 -70 73q0 28 20.5 47t51.5 19q39 0 83 -56l72 -90zM506 -20l-119 217l-120 -217l-266 460h142l129 -238l130 207l100 -206l128 237h142z" />
    <glyph glyph-name="uni00660074" horiz-adv-x="686" 
d="M665 440v-105h-105v-335h-136v335h-183v-335h-136v335h-98l55 105h43v2q0 129 68.5 204.5t188.5 75.5v-110q-54 -1 -87 -47t-34 -125h167l152 217v-217h105z" />
    <glyph glyph-name="acute.case" horiz-adv-x="382" 
d="M78 785l62 69q26 29 46 42.5t47 13.5q31 0 51.5 -19t20.5 -47q0 -24 -20 -44t-60 -29l-123 -28z" />
    <glyph glyph-name="breve.case" horiz-adv-x="493" 
d="M310 898h100q2 -61 -41 -108t-121 -47q-79 0 -122 47t-42 108h106q-2 -34 13.5 -54.5t44.5 -20.5q30 0 46.5 20.5t15.5 54.5z" />
    <glyph glyph-name="caron.case" horiz-adv-x="491" 
d="M413 848l-167 -105l-168 105l78 62l90 -63l88 63z" />
    <glyph glyph-name="circumflex.case" horiz-adv-x="511" 
d="M424 805l-83 -62l-85 63l-83 -63l-84 62l167 105z" />
    <glyph glyph-name="dieresis.case" horiz-adv-x="531" 
d="M159 897q35 0 56.5 -23.5t21.5 -53.5q0 -29 -21.5 -52t-56.5 -23q-32 0 -55 23.5t-23 51.5q0 29 22.5 53t55.5 24zM372 897q35 0 56.5 -23.5t21.5 -53.5q0 -29 -21.5 -52t-56.5 -23q-32 0 -55 23.5t-23 51.5q0 29 22.5 53t55.5 24z" />
    <glyph glyph-name="dotaccent.case" horiz-adv-x="405" 
d="M202 896q35 0 56.5 -23.5t21.5 -53.5q0 -29 -21.5 -52t-56.5 -23q-32 0 -54.5 23.5t-22.5 51.5q0 29 22.5 53t54.5 24z" />
    <glyph glyph-name="grave.case" horiz-adv-x="382" 
d="M282 743l-124 28q-40 9 -60 29t-20 44q0 28 20.5 47t51.5 19q27 0 47 -13.5t46 -43.5l62 -69z" />
    <glyph glyph-name="hungarumlaut.case" horiz-adv-x="613" 
d="M78 784l62 70q27 30 46.5 43t46.5 13q31 0 51.5 -19t20.5 -47q0 -24 -20 -44t-60 -29l-124 -28zM309 784l62 70q26 29 46 42.5t47 13.5q31 0 51.5 -19t20.5 -47q0 -24 -20 -44t-60 -29l-123 -28z" />
    <glyph glyph-name="macron.case" horiz-adv-x="555" 
d="M448 767h-340v104h340v-104z" />
    <glyph glyph-name="ring.case" horiz-adv-x="372" 
d="M187 895q48 0 78 -29t30 -71t-30 -71t-78 -29q-47 0 -78 29.5t-31 70.5t31 70.5t78 29.5zM187 825q-11 0 -20.5 -8t-9.5 -22t9.5 -22t20.5 -8q10 0 19.5 8t9.5 22t-9.5 22t-19.5 8z" />
    <glyph glyph-name="tilde.case" horiz-adv-x="527" 
d="M381 897l68 -68q-21 -37 -57 -59.5t-74 -22.5q-31 0 -61 24.5t-51 24.5q-38 0 -61 -52l-67 68q21 36 57 58t74 22q31 0 61 -23.5t51 -23.5q41 0 60 52z" />
    </font>
</defs>
</svg>
