<svg xmlns="http://www.w3.org/2000/svg" viewBox="0 0 71.091 81.938"><defs><style>.a{fill:#00AF96;}</style></defs><path class="a" d="M7357.541,801.516l-5.686-5.258a7.441,7.441,0,0,1-.251-10.758,8.072,8.072,0,0,1,11.127-.241,7.441,7.441,0,0,1,.249,10.756Zm16.241,15.014-9.394-8.685,5.437-5.5a16.4,16.4,0,0,0-.55-23.7,17.783,17.783,0,0,0-24.516.531,16.4,16.4,0,0,0,.551,23.706l5.688,5.257-41.009,41.473,6.846,6.329,41.008-41.473,9.395,8.685a13.423,13.423,0,0,1,.447,19.405,14.554,14.554,0,0,1-20.063.435l-5.652-5.226-6.546,6.619,5.652,5.226a24.263,24.263,0,0,0,33.453-.727,22.374,22.374,0,0,0-.746-32.351" transform="translate(-7309.989 -774.001)"/></svg>
