<svg xmlns="http://www.w3.org/2000/svg" viewBox="0 0 72.85 62.613"><defs><style>.a,.c{fill:#e60028;}.b,.c{stroke:none;}</style></defs><g transform="translate(-4123.15 -143.19)"><g class="a"><path class="b" d="M 4154.90673828125 204.4011840820312 L 4154.20703125 203.7114410400391 L 4125.29736328125 175.2116394042969 L 4124.5751953125 174.4994964599609 L 4125.29736328125 173.787353515625 L 4154.20703125 145.2875518798828 L 4154.90966796875 144.5951232910156 L 4155.61181640625 145.2879180908203 L 4155.7568359375 145.4310302734375 L 4156.47802734375 146.1431884765625 L 4155.75634765625 146.8549499511719 L 4128.8291015625 173.3993988037109 L 4194 173.3993988037109 L 4195 173.3993988037109 L 4195 174.3993988037109 L 4195 174.6006011962891 L 4195 175.6006011962891 L 4194 175.6006011962891 L 4128.8291015625 175.6006011962891 L 4155.75634765625 202.1451416015625 L 4156.48095703125 202.8596954345703 L 4155.75390625 203.5718078613281 L 4155.60888671875 203.7138061523438 L 4154.90673828125 204.4011840820312 Z"/><path class="c" d="M 4154.9091796875 145.9996795654297 L 4125.99951171875 174.4994964599609 L 4154.9091796875 202.9993133544922 L 4155.05419921875 202.8573150634766 L 4126.39013671875 174.6006164550781 L 4194 174.6006164550781 L 4194 174.3993835449219 L 4126.39013671875 174.3993835449219 L 4155.05419921875 146.1427917480469 L 4154.9091796875 145.9996795654297 M 4154.91015625 143.1903839111328 L 4156.31396484375 144.5762634277344 L 4156.458984375 144.7193756103516 L 4157.90234375 146.1436767578125 L 4156.4580078125 147.5670776367188 L 4131.26806640625 172.3993835449219 L 4194 172.3993835449219 L 4196 172.3993835449219 L 4196 174.3993835449219 L 4196 174.6006164550781 L 4196 176.6006164550781 L 4194 176.6006164550781 L 4131.26806640625 176.6006164550781 L 4156.4580078125 201.4330291748047 L 4157.90771484375 202.8620300292969 L 4156.45361328125 204.2862548828125 L 4156.30859375 204.4282684326172 L 4154.904296875 205.8032073974609 L 4153.5048828125 204.4236145019531 L 4124.595703125 175.9237976074219 L 4123.15087890625 174.4994964599609 L 4124.595703125 173.0751953125 L 4153.5048828125 144.5753784179688 L 4154.91015625 143.1903839111328 Z"/></g></g></svg>