<?xml version="1.0" encoding="utf-8"?>
<!-- Generator: Adobe Illustrator 22.1.0, SVG Export Plug-In . SVG Version: 6.00 Build 0)  -->
<svg version="1.1" id="Layer_1" xmlns="http://www.w3.org/2000/svg" xmlns:xlink="http://www.w3.org/1999/xlink" x="0px" y="0px"
	 viewBox="0 0 72.8 62.6" style="enable-background:new 0 0 72.8 62.6;" xml:space="preserve">
<style type="text/css">
	.st0{fill:#E1E61E;}
</style>
<g transform="translate(-1645 -534.189)">
	<path class="st0" d="M1676.8,535.6l0.7,0.7l0.1,0.1l0.7,0.7l-0.7,0.7l-26.9,26.5h65.2h1v1v0.2v1h-1h-65.2l26.9,26.5l0.7,0.7
		l-0.7,0.7l-0.1,0.1l-0.7,0.7l-0.7-0.7l-28.9-28.5l-0.7-0.7l0.7-0.7l28.9-28.5L1676.8,535.6z"/>
	<path class="st0" d="M1676.8,537l-28.9,28.5l28.9,28.5l0.1-0.1l-28.7-28.3h67.6v-0.2h-67.6l28.7-28.3L1676.8,537 M1676.8,534.2
		l1.4,1.4l0.1,0.1l1.4,1.4l-1.4,1.4l-25.2,24.8h62.7h2v2v0.2v2h-2h-62.7l25.2,24.8l1.4,1.4l-1.4,1.4l-0.1,0.1l-1.4,1.4l-1.4-1.4
		l-28.9-28.5l-1.4-1.4l1.4-1.4l28.9-28.5L1676.8,534.2z"/>
</g>
</svg>
