<svg xmlns="http://www.w3.org/2000/svg" viewBox="0 0 72.849 62.621"><defs><style>.a,.c{fill:#e1e61e;}.b,.c{stroke:none;}</style></defs><g class="a" transform="translate(-1645 -534.189)"><path class="b" d="M 1686.08935546875 595.4053344726562 L 1685.38720703125 594.7109985351562 L 1685.243041992188 594.5684204101562 L 1684.523071289062 593.8562622070312 L 1685.244262695312 593.145263671875 L 1712.1708984375 566.6007080078125 L 1647.000244140625 566.6007080078125 L 1646.000244140625 566.6007080078125 L 1646.000244140625 565.6007080078125 L 1646.000244140625 565.4000854492188 L 1646.000244140625 564.4000854492188 L 1647.000244140625 564.4000854492188 L 1712.1708984375 564.4000854492188 L 1685.244262695312 537.8550415039062 L 1684.523071289062 537.14404296875 L 1685.243041992188 536.431884765625 L 1685.38720703125 536.289306640625 L 1686.08935546875 535.594970703125 L 1686.79248046875 536.2881469726562 L 1715.702270507812 564.7880249023438 L 1716.424682617188 565.5001831054688 L 1715.702270507812 566.2123413085938 L 1686.79248046875 594.712158203125 L 1686.08935546875 595.4053344726562 Z"/><path class="c" d="M 1686.090454101562 594 L 1715.000244140625 565.5001831054688 L 1686.090454101562 537.0003051757812 L 1685.9462890625 537.1428833007812 L 1714.609741210938 565.4000854492188 L 1647.000244140625 565.4000854492188 L 1647.000244140625 565.6007080078125 L 1714.609741210938 565.6007080078125 L 1685.9462890625 593.857421875 L 1686.090454101562 594 M 1686.088256835938 596.8106689453125 L 1684.68408203125 595.4219970703125 L 1684.539916992188 595.2794189453125 L 1683.099731445312 593.8551025390625 L 1684.542236328125 592.43310546875 L 1709.732055664062 567.6007080078125 L 1647.000244140625 567.6007080078125 L 1645.000244140625 567.6007080078125 L 1645.000244140625 565.6007080078125 L 1645.000244140625 565.4000854492188 L 1645.000244140625 563.4000854492188 L 1647.000244140625 563.4000854492188 L 1709.732177734375 563.4000854492188 L 1684.542236328125 538.5671997070312 L 1683.099731445312 537.1452026367188 L 1684.539916992188 535.7208862304688 L 1684.68408203125 535.5783081054688 L 1686.088256835938 534.1896362304688 L 1687.494506835938 535.5759887695312 L 1716.404296875 564.0758666992188 L 1717.84912109375 565.5001831054688 L 1716.404296875 566.9244995117188 L 1687.494506835938 595.42431640625 L 1686.088256835938 596.8106689453125 Z"/></g></svg>