<?xml version="1.0" encoding="utf-8"?>
<!-- Generator: Adobe Illustrator 23.0.1, SVG Export Plug-In . SVG Version: 6.00 Build 0)  -->
<svg version="1.1" id="Layer_1" xmlns="http://www.w3.org/2000/svg" xmlns:xlink="http://www.w3.org/1999/xlink" x="0px" y="0px"
	 width="104px" height="36px" viewBox="0 0 104 36" style="enable-background:new 0 0 104 36;" xml:space="preserve">
<style type="text/css">
	.st0{fill:#F0BEC8;}
</style>
<path class="st0" d="M34.8,26.7L17.6,36h-0.1L0,26.5v-0.3l17.6,9.5l17.2-9.3L52,35.7l17.2-9.3l17.2,9.3l17.6-9.5v0.3L86.4,36
	l-17.2-9.3L52,36L34.8,26.7z M69.2,20.9L52,30.2l-17.2-9.3l-17.2,9.3L0,20.7v-1.9l17.6,9.5L34.8,19L52,28.3L69.2,19l17.2,9.3
	l17.6-9.5v1.9l-17.6,9.5L69.2,20.9z M69.2,13.5L52,22.8l-17.2-9.3l-17.2,9.3L0,13.3V13l17.6,9.5l17.2-9.3L52,22.5l17.2-9.3l17.2,9.3
	L104,13v0.3l-17.6,9.5L69.2,13.5z M69.2,6.9L52,16.2L34.8,6.9l-17.2,9.3h-0.1L0,6.7V6.4l17.6,9.5l17.2-9.3L52,15.9l17.2-9.3
	l17.2,9.3L104,6.4v0.3l-17.6,9.5L69.2,6.9z M69.2,0.3L52,9.6L34.8,0.3L17.6,9.6L-0.2,0h0.6l17.2,9.2L34.8,0L52,9.3L69.2,0l17.2,9.3
	L103.5,0h0.6L86.4,9.6L69.2,0.3z"/>
</svg>
